<?xml version="1.0" encoding="UTF-8" standalone="no"?>
<!-- Created with Inkscape (http://www.inkscape.org/) -->

<svg
   xmlns:dc="http://purl.org/dc/elements/1.1/"
   xmlns:cc="http://creativecommons.org/ns#"
   xmlns:rdf="http://www.w3.org/1999/02/22-rdf-syntax-ns#"
   xmlns:svg="http://www.w3.org/2000/svg"
   xmlns="http://www.w3.org/2000/svg"
   xmlns:sodipodi="http://sodipodi.sourceforge.net/DTD/sodipodi-0.dtd"
   xmlns:inkscape="http://www.inkscape.org/namespaces/inkscape"
   id="svg2"
   version="1.1"
   inkscape:version="0.47+devel r"
   width="240.94501"
   height="240.94482"
   xml:space="preserve"
   sodipodi:docname="BE_-_Bloco_de_Esquerda.eps"><metadata
     id="metadata8"><rdf:RDF><cc:Work
         rdf:about=""><dc:format>image/svg+xml</dc:format><dc:type
           rdf:resource="http://purl.org/dc/dcmitype/StillImage" /><dc:title></dc:title></cc:Work></rdf:RDF></metadata><defs
     id="defs6" /><sodipodi:namedview
     pagecolor="#ffffff"
     bordercolor="#666666"
     borderopacity="1"
     objecttolerance="10"
     gridtolerance="10"
     guidetolerance="10"
     inkscape:pageopacity="0"
     inkscape:pageshadow="2"
     inkscape:window-width="1280"
     inkscape:window-height="727"
     id="namedview4"
     showgrid="false"
     inkscape:zoom="0.53481354"
     inkscape:cx="381.875"
     inkscape:cy="494.06982"
     inkscape:window-x="0"
     inkscape:window-y="25"
     inkscape:window-maximized="1"
     inkscape:current-layer="g10" /><g
     id="g10"
     inkscape:groupmode="layer"
     inkscape:label="ink_ext_XXXXXX"
     transform="matrix(1.25,0,0,-1.25,-0.625,241.875)"><g
       id="g12"
       transform="scale(0.1,0.1)"><path
         d="M 1932.56,7.44141 5,7.44141 5,1935 l 1927.56,0 0,-1927.55859"
         style="fill:#231f20;fill-opacity:1;fill-rule:nonzero;stroke:none"
         id="path14"
         inkscape:connector-curvature="0" /><path
         d="m 734.848,1610.33 c 15.191,114.52 100.203,197.71 189.851,185.81 89.661,-11.9 150.011,-114.38 134.791,-228.9 -15.2,-114.52 -100.189,-197.71 -189.838,-185.82 -89.648,11.91 -150.007,114.39 -134.804,228.91 z M 312.875,1358.17 c 0,0 314.742,-93.97 601.301,-14.11 286.544,79.87 591.914,295.96 662.364,361.73 L 1125.59,1081 1416.84,465.605 928.277,855.527 496.09,371.66 712.184,1029.32 312.875,1358.17"
         style="fill:#d63826;fill-opacity:1;fill-rule:nonzero;stroke:none"
         id="path16"
         inkscape:connector-curvature="0" /><path
         d="m 1411.95,148.223 c -3.27,-0.977 -8.4,-2.168 -15.41,-3.535 -7.07,-1.368 -11.66,-2.696 -13.83,-4.024 -3.3,-2.129 -4.96,-4.844 -4.96,-8.125 0,-3.203 1.33,-5.996 3.96,-8.359 2.67,-2.344 6.02,-3.516 10.11,-3.516 4.56,0 8.94,1.367 13.08,4.102 3.07,2.07 5.09,4.609 6.04,7.636 0.67,1.953 1.01,5.703 1.01,11.231 l 0,4.59 z m -34.2,18.808 -22.8,3.731 c 2.6,8.457 7.06,14.746 13.38,18.808 6.32,4.063 15.69,6.094 28.17,6.094 11.31,0 19.73,-1.211 25.28,-3.652 5.52,-2.442 9.44,-5.508 11.68,-9.258 2.26,-3.75 3.4,-10.625 3.4,-20.625 l -0.28,-26.895 c 0,-7.656 0.43,-13.3 1.25,-16.933 0.8,-3.633 2.35,-7.539 4.6,-11.68 l -25.18,0 c -0.68,1.504 -1.49,3.731 -2.45,6.699 l -0.89,2.657 c -4.34,-3.829 -8.98,-6.719 -13.92,-8.614 -4.95,-1.894 -10.19,-2.871 -15.79,-2.871 -9.87,0 -17.66,2.422 -23.35,7.305 -5.69,4.863 -8.55,11.015 -8.55,18.457 0,4.922 1.29,9.316 3.89,13.184 2.59,3.847 6.22,6.816 10.89,8.867 4.66,2.031 11.39,3.828 20.2,5.371 11.87,2.031 20.08,3.906 24.67,5.644 l 0,2.344 c 0,4.512 -1.23,7.715 -3.65,9.629 -2.42,1.914 -7.02,2.871 -13.72,2.871 -4.55,0 -8.1,-0.801 -10.65,-2.48 -2.55,-1.641 -4.6,-4.512 -6.18,-8.653 z m -758.449,239.336 56.433,0 c 11.172,0 19.493,-0.41 24.989,-1.211 5.484,-0.801 10.39,-2.461 14.726,-4.98 4.332,-2.52 7.946,-5.899 10.836,-10.098 2.887,-4.199 4.332,-8.926 4.332,-14.16 0,-5.664 -1.785,-10.84 -5.332,-15.586 -3.566,-4.727 -8.406,-8.281 -14.492,-10.644 8.578,-2.11 15.18,-5.723 19.797,-10.801 4.609,-5.117 6.914,-11.114 6.914,-18.008 0,-5.43 -1.488,-10.684 -4.477,-15.801 -2.984,-5.137 -7.054,-9.238 -12.215,-12.305 -5.171,-3.085 -11.539,-4.961 -19.117,-5.664 -4.742,-0.429 -16.195,-0.703 -34.351,-0.8 l -48.043,0 0,120.058 z m 28.629,-20.41 0,-27.559 18.605,0 c 11.063,0 17.942,0.137 20.617,0.391 4.86,0.488 8.684,1.934 11.461,4.277 2.789,2.364 4.172,5.45 4.172,9.317 0,3.691 -1.191,6.679 -3.594,8.984 -2.394,2.285 -5.957,3.692 -10.691,4.18 -2.816,0.273 -10.902,0.41 -24.266,0.41 l -16.304,0 z m 0,-47.969 0,-31.269 26.34,0 c 10.242,0 16.742,0.215 19.5,0.722 4.23,0.625 7.675,2.188 10.332,4.649 2.66,2.48 3.996,5.801 3.996,9.941 0,3.516 -1.028,6.485 -3.082,8.926 -2.047,2.441 -5.004,4.238 -8.883,5.352 -3.887,1.113 -12.289,1.679 -25.238,1.679 l -22.965,0 z m 113.508,-51.679 0,120.058 27.031,0 0,-120.058 -27.031,0 z m 48.519,44.707 c 0,7.656 2.215,15.058 6.656,22.246 4.438,7.168 10.723,12.636 18.86,16.426 8.14,3.75 17.222,5.664 27.257,5.664 15.504,0 28.208,-4.278 38.114,-12.852 9.902,-8.574 14.859,-19.375 14.859,-32.48 0,-13.223 -5,-24.141 -15.004,-32.832 -10.004,-8.672 -22.594,-13.008 -37.777,-13.008 -9.391,0 -18.352,1.836 -26.867,5.429 -8.524,3.594 -15.004,8.907 -19.442,15.899 -4.441,6.972 -6.656,15.469 -6.656,25.508 z m 27.828,-1.25 c 0,-8.633 2.41,-15.274 7.235,-19.883 4.828,-4.59 10.777,-6.875 17.855,-6.875 7.078,0 13.008,2.285 17.805,6.875 4.8,4.609 7.191,11.269 7.191,20.039 0,8.555 -2.391,15.117 -7.191,19.707 -4.797,4.609 -10.727,6.914 -17.805,6.914 -7.078,0 -13.027,-2.305 -17.855,-6.914 -4.825,-4.59 -7.235,-11.211 -7.235,-19.863 z m 188.505,18.027 -26.767,-3.984 c -0.898,4.492 -2.929,7.871 -6.093,10.117 -3.176,2.265 -7.285,3.418 -12.344,3.418 -6.734,0 -12.102,-1.992 -16.106,-5.977 -4.003,-3.984 -6.003,-10.625 -6.003,-19.961 0,-10.371 2.039,-17.715 6.121,-21.972 4.082,-4.297 9.566,-6.426 16.445,-6.426 5.148,0 9.355,1.25 12.629,3.73 3.281,2.539 5.594,6.836 6.938,12.95 l 26.51,-3.965 c -2.76,-10.411 -8.06,-18.262 -15.88,-23.575 -7.84,-5.312 -18.33,-7.968 -31.486,-7.968 -14.965,0 -26.879,4.023 -35.77,12.07 -8.894,8.047 -13.339,19.199 -13.339,33.438 0,14.394 4.464,25.605 13.39,33.632 8.922,8.028 20.992,12.032 36.207,12.032 12.453,0 22.358,-2.266 29.708,-6.797 7.34,-4.551 12.63,-11.485 15.84,-20.762 z m 14.2,-16.777 c 0,7.656 2.21,15.058 6.64,22.246 4.44,7.168 10.72,12.636 18.87,16.426 8.14,3.75 17.21,5.664 27.25,5.664 15.51,0 28.21,-4.278 38.13,-12.852 9.89,-8.574 14.85,-19.375 14.85,-32.48 0,-13.223 -5.01,-24.141 -15.01,-32.832 -10.01,-8.672 -22.6,-13.008 -37.77,-13.008 -9.39,0 -18.36,1.836 -26.88,5.429 -8.5,3.594 -15,8.907 -19.44,15.899 -4.43,6.972 -6.64,15.469 -6.64,25.508 z m 27.82,-1.25 c 0,-8.633 2.4,-15.274 7.24,-19.883 4.82,-4.59 10.78,-6.875 17.84,-6.875 7.08,0 13.01,2.285 17.82,6.875 4.79,4.609 7.19,11.269 7.19,20.039 0,8.555 -2.4,15.117 -7.19,19.707 -4.81,4.609 -10.74,6.914 -17.82,6.914 -7.06,0 -13.02,-2.305 -17.84,-6.914 -4.84,-4.59 -7.24,-11.211 -7.24,-19.863 z m 248.17,-43.457 -25.18,0 0,12.753 c -4.17,-4.96 -9.1,-8.691 -14.78,-11.152 -5.68,-2.48 -11.41,-3.73 -17.19,-3.73 -11.76,0 -21.81,4.043 -30.21,12.109 -8.37,8.086 -12.56,19.356 -12.56,33.789 0,14.805 4.08,26.035 12.24,33.731 8.17,7.695 18.5,11.543 30.95,11.543 11.43,0 21.34,-4.024 29.7,-12.129 l 0,43.144 27.03,0 0,-120.058 z m -72.09,45.468 c 0,-9.336 1.5,-16.074 4.52,-20.254 4.38,-6.054 10.48,-9.062 18.34,-9.062 6.22,0 11.52,2.285 15.91,6.777 4.37,4.551 6.56,11.309 6.56,20.313 0,10.019 -2.13,17.265 -6.38,21.699 -4.24,4.395 -9.67,6.602 -16.3,6.602 -6.42,0 -11.81,-2.168 -16.15,-6.543 -4.33,-4.356 -6.5,-10.879 -6.5,-19.532 z m 158.01,-17.91 27.05,-3.984 c -3.46,-8.379 -8.95,-14.746 -16.41,-19.121 -7.49,-4.395 -16.85,-6.582 -28.08,-6.582 -17.77,0 -30.94,4.941 -39.47,14.863 -6.75,7.949 -10.12,17.969 -10.12,30.059 0,14.472 4.42,25.8 13.28,33.964 8.83,8.184 20.01,12.286 33.57,12.286 15.18,0 27.17,-4.278 35.96,-12.852 8.77,-8.555 12.98,-21.68 12.58,-39.355 l -67.55,0 c 0.19,-6.875 2.35,-12.207 6.52,-16.016 4.14,-3.828 9.32,-5.703 15.54,-5.703 4.19,0 7.75,0.957 10.62,2.949 2.88,1.953 5.06,5.117 6.51,9.492 z m 1.62,23.301 c -0.21,6.777 -2.21,11.914 -6.06,15.41 -3.84,3.516 -8.53,5.274 -14,5.274 -5.91,0 -10.78,-1.856 -14.61,-5.547 -3.85,-3.711 -5.74,-8.75 -5.68,-15.137 l 40.35,0 z m -785.778,-230.547 0,120.059 98.07,0 0,-20.41 -71.3,0 0,-26.504 66.261,0 0,-20.43 -66.261,0 0,-32.305 73.949,0 0,-20.41 -100.719,0 z m 114.25,24.629 25.449,3.457 c 1.082,-4.434 3.301,-7.793 6.645,-10.078 3.336,-2.305 7.996,-3.438 14.019,-3.438 6.606,0 11.59,1.114 14.922,3.301 2.246,1.563 3.364,3.633 3.364,6.211 0,1.777 -0.606,3.242 -1.817,4.395 -1.285,1.093 -4.14,2.109 -8.586,3.047 -20.676,4.14 -33.789,7.89 -39.324,11.289 -7.656,4.687 -11.488,11.211 -11.488,19.55 0,7.52 3.304,13.868 9.922,18.985 6.613,5.117 16.875,7.695 30.765,7.695 13.231,0 23.063,-1.914 29.5,-5.742 6.434,-3.848 10.867,-9.551 13.293,-17.051 l -23.859,-3.965 c -1.035,3.399 -3.016,6.016 -5.945,7.852 -2.914,1.836 -7.082,2.734 -12.485,2.734 -6.824,0 -11.711,-0.84 -14.66,-2.558 -1.961,-1.211 -2.945,-2.774 -2.945,-4.707 0,-1.661 0.847,-3.067 2.55,-4.219 2.309,-1.543 10.29,-3.731 23.926,-6.543 13.649,-2.793 23.168,-6.231 28.578,-10.313 5.344,-4.16 8.024,-9.902 8.024,-17.265 0,-8.047 -3.688,-14.942 -11.059,-20.723 -7.363,-5.781 -18.261,-8.672 -32.695,-8.672 -13.094,0 -23.473,2.403 -31.113,7.207 -7.637,4.805 -12.629,11.328 -14.981,19.551 z m 174.813,-58.0273 0,43.9063 c -3.309,-3.906 -7.438,-6.973 -12.383,-9.238 -4.942,-2.266 -10.293,-3.399 -16.012,-3.399 -10.91,0 -19.902,3.711 -26.961,11.172 -8.32,8.711 -12.484,20.508 -12.484,35.391 0,14.043 3.906,24.961 11.73,32.832 7.828,7.851 17.547,11.777 29.141,11.777 6.406,0 11.949,-1.25 16.637,-3.769 4.672,-2.5 8.828,-6.25 12.457,-11.211 l 0,12.851 23.324,0 0,-120.3123 -25.449,0 z m 0.8,77.9683 c 0,8.926 -2.011,15.567 -6.015,19.942 -4.012,4.316 -9.024,6.504 -15.055,6.504 -6.14,0 -11.281,-2.227 -15.41,-6.641 -4.133,-4.453 -6.184,-11.484 -6.184,-21.094 0,-9.609 1.981,-16.523 5.965,-20.742 3.969,-4.277 8.883,-6.367 14.727,-6.367 5.851,0 10.972,2.363 15.371,7.129 4.391,4.766 6.601,11.855 6.601,21.269 z m 113.135,-44.57 0,13.008 c -3.51,-4.649 -8.13,-8.32 -13.83,-11.035 -5.71,-2.735 -11.734,-4.102 -18.074,-4.102 -6.465,0 -12.262,1.309 -17.391,3.867 -5.144,2.559 -8.859,6.172 -11.148,10.801 -2.301,4.668 -3.442,11.094 -3.442,19.278 l 0,55.097 25.45,0 0,-40.039 c 0,-12.246 0.457,-19.746 1.394,-22.539 0.938,-2.754 2.649,-4.941 5.129,-6.562 2.461,-1.602 5.594,-2.403 9.414,-2.403 4.338,0 8.228,1.074 11.668,3.223 3.45,2.168 5.8,4.844 7.05,8.047 1.28,3.203 1.92,11.035 1.92,23.515 l 0,36.758 25.44,0 0,-86.914 -23.58,0 z m 105.17,27.559 25.43,-3.985 c -3.27,-8.379 -8.4,-14.746 -15.44,-19.14 -7.03,-4.375 -15.84,-6.563 -26.41,-6.563 -16.74,0 -29.11,4.961 -37.16,14.844 -6.33,7.969 -9.5,17.988 -9.5,30.098 0,14.433 4.15,25.761 12.49,33.964 8.33,8.164 18.87,12.266 31.61,12.266 14.32,0 25.6,-4.277 33.87,-12.852 8.27,-8.554 12.23,-21.679 11.88,-39.374 l -63.88,0 c 0.18,-6.856 2.24,-12.188 6.16,-15.997 3.93,-3.828 8.84,-5.722 14.72,-5.722 3.97,0 7.34,0.976 10.05,2.949 2.72,1.953 4.77,5.117 6.18,9.512 z m 1.58,23.32 c -0.19,6.738 -2.1,11.895 -5.74,15.41 -3.64,3.516 -8.08,5.254 -13.29,5.254 -5.58,0 -10.21,-1.836 -13.84,-5.547 -3.64,-3.711 -5.44,-8.75 -5.37,-15.117 l 38.24,0 z m 70.13,-50.879 -25.44,0 0,86.914 23.6,0 0,-12.363 c 4.01,5.84 7.67,9.726 10.9,11.64 3.23,1.895 6.91,2.852 11.02,2.852 5.8,0 11.38,-1.445 16.75,-4.355 l -7.8,-20.098 c -4.32,2.519 -8.29,3.789 -11.99,3.789 -3.57,0 -6.59,-0.898 -9.07,-2.695 -2.48,-1.758 -4.42,-4.961 -5.84,-9.61 -1.41,-4.648 -2.13,-14.375 -2.13,-29.199 l 0,-26.875 z m 135.94,0 -23.57,0 0,12.793 c -3.93,-5 -8.56,-8.711 -13.92,-11.211 -5.33,-2.461 -10.7,-3.711 -16.14,-3.711 -11.05,0 -20.5,4.043 -28.36,12.11 -7.88,8.066 -11.82,19.336 -11.82,33.808 0,14.766 3.81,26.016 11.49,33.711 7.65,7.695 17.32,11.543 29.02,11.543 10.72,0 20.01,-4.043 27.87,-12.109 l 0,43.125 25.43,0 0,-120.059 z m -67.84,45.469 c 0,-9.317 1.42,-16.094 4.26,-20.254 4.13,-6.035 9.87,-9.043 17.25,-9.043 5.89,0 10.88,2.246 15,6.797 4.11,4.492 6.16,11.25 6.16,20.273 0,10.059 -2,17.266 -6,21.68 -3.97,4.414 -9.12,6.621 -15.34,6.621 -6.03,0 -11.11,-2.168 -15.19,-6.523 -4.12,-4.395 -6.14,-10.879 -6.14,-19.551"
         style="fill:#ffffff;fill-opacity:1;fill-rule:nonzero;stroke:none"
         id="path18"
         inkscape:connector-curvature="0" /></g></g></svg>