<?xml version="1.0" encoding="UTF-8" standalone="no"?>
<!-- Created with Inkscape (http://www.inkscape.org/) -->

<svg
   xmlns:dc="http://purl.org/dc/elements/1.1/"
   xmlns:cc="http://creativecommons.org/ns#"
   xmlns:rdf="http://www.w3.org/1999/02/22-rdf-syntax-ns#"
   xmlns:svg="http://www.w3.org/2000/svg"
   xmlns="http://www.w3.org/2000/svg"
   xmlns:sodipodi="http://sodipodi.sourceforge.net/DTD/sodipodi-0.dtd"
   xmlns:inkscape="http://www.inkscape.org/namespaces/inkscape"
   id="svg2"
   version="1.1"
   inkscape:version="0.47 r22583"
   width="331.48724"
   height="88.277496"
   xml:space="preserve"
   sodipodi:docname="ps.ai"><metadata
     id="metadata8"><rdf:RDF><cc:Work
         rdf:about=""><dc:format>image/svg+xml</dc:format><dc:type
           rdf:resource="http://purl.org/dc/dcmitype/StillImage" /><dc:title></dc:title></cc:Work></rdf:RDF></metadata><defs
     id="defs6"><inkscape:perspective
       sodipodi:type="inkscape:persp3d"
       inkscape:vp_x="0 : 0.5 : 1"
       inkscape:vp_y="0 : 1000 : 0"
       inkscape:vp_z="1 : 0.5 : 1"
       inkscape:persp3d-origin="0.5 : 0.33333333 : 1"
       id="perspective10" /><clipPath
       clipPathUnits="userSpaceOnUse"
       id="clipPath18"><path
         d="m 0,263.62 354.33,0 L 354.33,0 0,0 0,263.62 z"
         id="path20" /></clipPath></defs><sodipodi:namedview
     pagecolor="#ffffff"
     bordercolor="#666666"
     borderopacity="1"
     objecttolerance="10"
     gridtolerance="10"
     guidetolerance="10"
     inkscape:pageopacity="0"
     inkscape:pageshadow="2"
     inkscape:window-width="1280"
     inkscape:window-height="727"
     id="namedview4"
     showgrid="false"
     inkscape:zoom="1.5043693"
     inkscape:cx="165.74363"
     inkscape:cy="44.138253"
     inkscape:window-x="0"
     inkscape:window-y="25"
     inkscape:window-maximized="1"
     inkscape:current-layer="g12" /><g
     id="g12"
     inkscape:groupmode="layer"
     inkscape:label="logo_PS_pb"
     transform="matrix(1.25,0,0,-1.25,-55.712625,208.90175)"><g
       id="g14"><g
         id="g16"
         clip-path="url(#clipPath18)"><g
           id="g22"
           transform="translate(129.6035,139.9595)"><path
             d="M 0,0 C 1.301,-1.118 1.255,-2.876 1.254,-2.894 L 1.252,-2.931 1.26,-2.968 c 1.013,-5.614 2.566,-7.679 2.633,-7.764 l 0.048,-0.054 c 0.836,-0.709 1.455,-1.039 1.947,-1.039 0.294,0 0.54,0.121 0.708,0.35 0.587,0.789 0.03,2.76 -0.089,3.156 -0.146,0.436 0.012,3.32 0.171,5.237 0.239,4.4 -2.2,6.419 -2.305,6.503 L 4.312,3.462 c -2.069,1.034 -4.189,3.845 -4.5,4.27 -0.416,1.798 -0.66,2.291 -1.122,2.291 -0.464,0 -0.667,-0.534 -1.111,-1.706 C -2.582,7.889 -2.771,7.396 -2.983,6.893 -5.045,3.007 -0.446,0.256 0,0"
             style="fill:#373535;fill-opacity:1;fill-rule:evenodd;stroke:none"
             id="path24" /></g><g
           id="g26"
           transform="translate(133.8818,115.5566)"><path
             d="M 0,0 C 0.915,0 1.487,0.243 1.702,0.718 1.976,1.321 1.628,2.141 0.565,3.339 L -0.212,3.962 -0.298,4.021 -0.39,4.035 c -0.021,0.002 -2.126,0.382 -3.506,7.703 -0.247,2.278 -0.477,5.974 -0.108,6.825 l 0.029,0.094 c 0.039,0.329 0.373,3.249 -0.419,4.146 -0.18,0.202 -0.408,0.31 -0.663,0.31 -0.635,0 -1.402,-0.674 -2.44,-2.165 -2.75,-5.579 -3.358,-8.27 -1.797,-14.268 C -9.195,6.435 -6.825,0.651 -1.982,0.256 -1.941,0.246 -0.937,0 0,0"
             style="fill:#373535;fill-opacity:1;fill-rule:evenodd;stroke:none"
             id="path28" /></g><g
           id="g30"
           transform="translate(136.0029,113.6211)"><path
             d="m 0,0 -0.016,-0.082 -0.26,-0.092 c -0.031,-0.01 -2.948,-1.043 -3.993,-1.249 -0.73,-0.072 -2.442,-0.332 -2.556,-1.176 -0.08,-0.597 0.574,-1.12 2.19,-1.742 l 0.08,-0.019 c 0.057,-0.01 1.403,-0.171 2.484,-0.171 0.865,0 1.161,0.107 1.307,0.186 l 0.138,0.076 0.012,0.054 0.059,0.01 L 0.362,0.061 0,0 z"
             style="fill:#373535;fill-opacity:1;fill-rule:evenodd;stroke:none"
             id="path32" /></g><g
           id="g34"
           transform="translate(144.5547,151.752)"><path
             d="M 0,0 0.725,3.373 C 0.699,3.365 0.671,3.356 0.646,3.349 L 0.22,3.303 C 0.005,3.279 -5.07,2.691 -7.198,-0.548 -7.388,-0.754 -9.042,-2.601 -8.9,-3.907 c 0.039,-0.366 0.217,-0.673 0.505,-0.875 0.025,-0.019 0.607,-0.449 1.298,-0.449 0.599,0 1.396,0.311 1.801,1.797 l 0.011,0.065 c 0.003,0.03 0.095,0.734 1.686,0.734 0.635,0 1.415,-0.114 2.36,-0.348 l 0.002,0 c 0.079,-0.059 0.174,-0.1 0.306,-0.1 0.063,0 0.152,0.013 0.245,0.025 L -0.659,-3.061 0,0 z"
             style="fill:#373535;fill-opacity:1;fill-rule:evenodd;stroke:none"
             id="path36" /></g><g
           id="g38"
           transform="translate(133.7979,101.7354)"><path
             d="M 0,0 161.837,0 175.962,59.748 12.851,59.75"
             style="fill:#373535;fill-opacity:1;fill-rule:evenodd;stroke:none"
             id="path40" /></g><g
           id="g42"
           transform="translate(146.6484,161.4849)"><path
             d="m 0,0 -1.369,-6.36 c 2.353,0.703 3.344,1.255 3.353,1.261 2.642,1.093 6.252,1.317 8.827,1.317 1.198,0 1.982,-0.049 2.014,-0.052 6.779,-0.269 8.575,-5.285 8.594,-5.337 l 0.016,-0.079 c 0.228,-2.584 -0.114,-3.284 -0.392,-3.586 -0.161,-0.176 -0.367,-0.269 -0.595,-0.269 -0.695,0 -1.397,0.907 -1.574,1.156 -2.059,1.965 -5.546,2.116 -6.571,2.116 -0.167,0 -0.262,-0.002 -0.269,-0.002 -0.424,0.015 -0.809,0.022 -1.191,0.022 -6.552,0 -11.281,-2.325 -11.328,-2.348 l -0.311,-0.103 c -0.897,-0.286 -1.522,-0.454 -1.921,-0.517 L -2.094,-9.733 0,0 z"
             style="fill:#ffffff;fill-opacity:1;fill-rule:evenodd;stroke:none"
             id="path44" /></g><g
           id="g46"
           transform="translate(143.8955,148.6914)"><path
             d="m 0,0 -7.53,-35.01 0.648,0.108 c 0.065,0.012 1.72,0.316 3.594,0.316 1.701,0 3.017,-0.253 3.909,-0.75 1.402,-0.601 3.461,-1.47 4.699,-1.97 -1.309,1.591 -3.808,4.775 -4.359,8.082 l -0.129,0.2 c -0.01,0.032 -1.151,3.236 -3.368,6.604 l -0.042,0.063 -0.439,3.086 3.24,-1.205 c 0.397,-0.17 3.726,-1.655 4.101,-3.389 0.105,-1.325 0.269,-3.423 0.305,-3.616 l 0.058,-0.13 c 1.265,-3.164 1.972,-5.445 2.043,-6.599 0.172,-0.483 1.839,-4.917 4.741,-5.407 l 3.377,-0.79 c -0.004,0.006 0.332,-0.013 0.856,-0.013 1.407,0 4.082,0.129 6.186,1.002 l 2.659,0.712 c 0.041,0.009 0.284,0.044 0.575,0.044 0.702,0 1.119,-0.196 1.239,-0.579 0.14,-0.443 -0.047,-1.125 -2.491,-2.823 l -0.099,-0.048 c -0.255,-0.076 -6.301,-1.853 -9.729,-1.853 -0.328,0 -0.626,0.016 -0.885,0.051 l -4.862,0.215 c -0.162,0.025 -3.114,0.521 -6.455,2.72 l -0.179,0.103 c -0.406,0.146 -4.899,1.73 -8.481,1.73 -0.526,0 -1.011,-0.035 -1.446,-0.101 l -0.183,-0.028 -1.651,-7.681 L 0,0 z"
             style="fill:#ffffff;fill-opacity:1;fill-rule:evenodd;stroke:none"
             id="path48" /></g><g
           id="g50"
           transform="translate(148.4365,143.6304)"><path
             d="m 0,0 c 1.097,3.014 3.145,3.682 3.229,3.709 l 1,0.501 c 0.06,0.027 1.051,0.438 2.476,0.438 1.843,0 4.483,-0.695 6.606,-4.006 1.008,-1.575 1.321,-2.525 1.021,-3.078 -0.108,-0.198 -0.345,-0.432 -0.86,-0.432 -1.259,0 -3.596,1.432 -3.858,1.594 l -0.06,0.05 -0.133,0.13 C 8.7,-0.373 7.761,-0.008 6.632,-0.008 4.93,-0.008 3.38,-0.838 3.364,-0.846 L 3.096,-0.942 C 2.11,-1.575 1.374,-1.883 0.844,-1.883 c -0.43,0 -0.66,0.199 -0.781,0.365 C -0.316,-0.99 -0.033,-0.1 0,0"
             style="fill:#ffffff;fill-opacity:1;fill-rule:evenodd;stroke:none"
             id="path52" /></g><g
           id="g54"
           transform="translate(150.6201,133.7397)"><path
             d="m 0,0 c -0.127,-0.006 -0.265,-0.01 -0.4,-0.01 -4.43,0 -5.973,2.976 -6.037,3.104 -1.767,3.508 -1.282,6.392 1.441,8.574 0.057,0.045 0.103,0.083 0.139,0.114 0.239,0.207 0.533,0.196 0.708,-0.007 0.286,-0.325 0.223,-1.321 0.12,-2.099 -0.009,-0.114 0.124,-0.572 0.29,-1.003 L -1.672,6.925 C -1.279,6.579 0.984,5.097 3.012,3.816 4.724,2.895 6.959,2.822 7.604,2.822 c 0.165,0 0.259,0.005 0.262,0.005 L 8.806,2.871 8.113,2.235 C 5.707,0.025 0.232,0 0,0"
             style="fill:#ffffff;fill-opacity:1;fill-rule:evenodd;stroke:none"
             id="path56" /></g><g
           id="g58"
           transform="translate(155.6221,126.249)"><path
             d="m 0,0 c -0.24,-0.349 -1.533,-2.157 -2.498,-2.157 -0.235,0 -0.441,0.095 -0.596,0.275 -0.257,0.297 -0.552,0.978 -0.178,3.448 l 0.02,0.076 c 0.092,0.233 2.348,5.738 10.433,7.022 0.022,0.004 4.132,0.933 4.888,3.048 0.285,0.8 0.035,1.705 -0.74,2.684 l -1.811,2.146 0.582,0.103 c 0.271,0.05 0.638,0.077 1.027,0.077 2.023,0 4.572,-0.646 5.653,-2.463 0.076,-0.16 1.578,-3.304 0.579,-5.624 C 16.936,7.652 16.136,6.969 14.976,6.602 14.833,6.567 2.817,3.659 0,0"
             style="fill:#ffffff;fill-opacity:1;fill-rule:evenodd;stroke:none"
             id="path60" /></g><g
           id="g62"
           transform="translate(182.2764,129.709)"><path
             d="m 0,0 c -1.837,-2.058 -4.846,-2.654 -5.39,-2.748 l -0.032,-0.282 -0.568,-2.865 -0.671,-1.797 -0.79,-1.793 -1.594,-2.068 c -2.754,-5.391 -12.459,-7.693 -12.869,-7.789 l -0.048,-0.009 -0.048,0.003 c -2.169,0.108 -3.127,0.484 -3.107,1.224 0.024,1.034 2.447,1.967 2.82,2.002 0.69,0.417 4.724,3.323 7.475,5.325 0.234,2.045 5.261,8.906 6.04,9.959 l 0.638,2.727 c 0.313,3.666 0.673,3.962 1.11,3.962 0.199,0 0.661,0 1.003,-2.156 l 0.565,-1.715 0.31,-2.702 -0.085,-0.735 c 1.062,0.281 1.962,1.684 2.12,1.946 0.319,1.407 1.55,5.293 2.008,6.217 0.244,0.487 -0.287,1.932 -0.752,2.825 -1.398,1.591 -3.664,5.608 -3.759,5.779 -0.37,0.871 -2.545,3.489 -3.39,4.471 -0.49,0.351 -1.011,0.809 -0.856,1.299 0.129,0.408 0.639,0.591 1.65,0.591 0.8,0 1.635,-0.115 1.67,-0.12 l 0.063,-0.015 c 4.95,-1.681 6.285,-4.808 6.339,-4.939 1.413,-2.985 1.381,-4.794 1.359,-5.156 0.307,-1.3 0.93,-4.495 0.958,-4.632 L 2.176,6.747 C 2.21,2.017 0.269,0.225 0,0"
             style="fill:#ffffff;fill-opacity:1;fill-rule:evenodd;stroke:none"
             id="path64" /></g><g
           id="g66"
           transform="translate(274.3887,138.3657)"><path
             d="m 0,0 4.927,-0.825 c 9.223,-1.534 15.304,-5.189 13.53,-12.734 -2.495,-10.609 -17.277,-15.856 -30.741,-15.856 -7.851,0 -16.578,1.534 -23.004,4.07 l 9.892,12.554 1.004,-0.647 c 3.523,-2.24 7.966,-4.068 13.17,-4.068 2.233,0 5.936,0.648 6.407,2.651 0.471,2.005 -2.46,2.182 -4.458,2.476 l -4.406,0.591 c -8.575,1.12 -15.136,4.835 -13.502,11.788 2.48,10.553 17.331,16.447 30.881,16.447 7.105,0 13.341,-1.238 18.83,-3.891 L 13.742,1.179 c -3.439,1.886 -7.471,3.36 -12.344,3.36 -1.983,0 -5,-0.53 -5.429,-2.357 C -4.42,0.531 -1.666,0.294 0,0"
             style="fill:#ffffff;fill-opacity:1;fill-rule:evenodd;stroke:none"
             id="path68" /></g><g
           id="g70"
           transform="translate(224.1387,138.3086)"><path
             d="m 0,0 c -0.845,-3.595 -5.252,-4.066 -9.218,-4.066 l -2.229,0 1.815,7.721 2.148,0 C -3.767,3.655 0.818,3.479 0,0 m 0.079,15.799 -26.963,-0.371 -10.441,-44.441 20.098,0.367 3.146,13.38 11.567,-0.002 c 12.638,0 21.9,5.659 24.035,14.737 2.592,11.023 -6.903,16.329 -21.442,16.33"
             style="fill:#ffffff;fill-opacity:1;fill-rule:evenodd;stroke:none"
             id="path72" /></g><g
           id="g74"
           transform="translate(114.7842,131.8267)"><path
             d="m 0,0 c 0,-19.14 -15.514,-34.654 -34.653,-34.654 -19.139,0 -34.655,15.514 -34.655,34.654 0,19.14 15.516,34.654 34.655,34.654 C -15.514,34.654 0,19.14 0,0"
             style="fill:#373535;fill-opacity:1;fill-rule:evenodd;stroke:none"
             id="path76" /></g><g
           id="g78"
           transform="translate(92.4102,138.5303)"><path
             d="m 0,0 c 0,0 -1.915,-2.659 -3.578,-4.294 0,0 -1.265,-1.878 0.754,-2.27 0,0 1.815,-0.736 3.673,1.227 0,0 2.177,1.682 1.821,4.423 0,0 -0.948,2.141 -2.67,0.914"
             style="fill:#ffffff;fill-opacity:1;fill-rule:evenodd;stroke:none"
             id="path80" /></g><g
           id="g82"
           transform="translate(92.083,140.353)"><path
             d="m 0,0 c 0,0 0.353,4.156 -4.232,2.803 0,0 -0.557,-0.4 -0.782,-1.238 0,0 -2.831,-5.345 -3.055,-5.402 -0.225,-0.056 -1.859,-1.831 0.195,-2.473 0,0 2.316,-1.293 4.528,1.178 0,0 2.212,2.799 3.346,5.132"
             style="fill:#ffffff;fill-opacity:1;fill-rule:evenodd;stroke:none"
             id="path84" /></g><g
           id="g86"
           transform="translate(84.374,138.4795)"><path
             d="m 0,0 c 0,0 1.04,1.625 1.589,3.829 0,0 0.159,0.512 0,1.564 0,0 -0.227,1.571 -0.718,3.059 0,0 -0.298,1.034 -1.563,0.977 0,0 -2.121,0.383 -2.344,-1.886 0,0 -0.749,-3.328 -0.974,-4.1 0,0 -1.402,-2.417 -1.691,-2.994 -0.288,-0.577 -1.272,-2.547 1.5,-2.865 0,0 2.64,-0.188 4.201,2.416"
             style="fill:#ffffff;fill-opacity:1;fill-rule:evenodd;stroke:none"
             id="path88" /></g><g
           id="g90"
           transform="translate(81.2715,148.7578)"><path
             d="m 0,0 c -0.23,1.419 -2.185,1.489 -2.604,1.499 0,0 -1.404,-0.01 -3.451,-0.65 0,0 -1.663,-0.463 -2.797,-2.602 0,0 -0.686,-1.637 1.498,-0.848 l 0.911,0.911 c 0,0 1.405,-2.855 5.31,-0.905 0,0 1.365,1.17 1.133,2.595"
             style="fill:#ffffff;fill-opacity:1;fill-rule:evenodd;stroke:none"
             id="path92" /></g><g
           id="g94"
           transform="translate(52.4971,121.3271)"><path
             d="M 0,0 1.9,0.13 1.499,1.171 0,0 z"
             style="fill:#ffffff;fill-opacity:1;fill-rule:evenodd;stroke:none"
             id="path96" /></g><g
           id="g98"
           transform="translate(63.6689,153.2729)"><path
             d="M 0,0 C 0.284,-0.074 0.562,-0.017 0.828,0.171 1.105,0.364 1.255,0.603 1.28,0.887 1.306,1.171 1.155,1.546 0.83,2.011 0.557,2.402 0.278,2.631 -0.006,2.701 -0.289,2.771 -0.566,2.713 -0.836,2.525 -1.094,2.343 -1.238,2.106 -1.267,1.813 -1.295,1.521 -1.16,1.164 -0.865,0.742 -0.57,0.321 -0.283,0.074 0,0"
             style="fill:#ffffff;fill-opacity:1;fill-rule:evenodd;stroke:none"
             id="path100" /></g><g
           id="g102"
           transform="translate(51.2725,130.0938)"><path
             d="M 0,0 C -0.027,0.102 -0.087,0.18 -0.176,0.24 -0.266,0.301 -0.365,0.327 -0.477,0.319 -0.639,0.309 -0.761,0.248 -0.842,0.139 -0.92,0.029 -0.95,-0.168 -0.932,-0.452 l 0.049,-0.687 1.027,0.071 -0.046,0.659 C 0.093,-0.338 0.06,-0.202 0,0"
             style="fill:#ffffff;fill-opacity:1;fill-rule:evenodd;stroke:none"
             id="path104" /></g><g
           id="g106"
           transform="translate(58.5381,147.8042)"><path
             d="M 0,0 C 0.196,0.261 0.309,0.468 0.334,0.622 0.359,0.775 0.323,0.939 0.227,1.11 0.129,1.281 -0.083,1.489 -0.407,1.734 -0.836,2.059 -1.182,2.209 -1.446,2.188 -1.709,2.167 -1.963,1.996 -2.207,1.673 L -2.442,1.36 -0.23,-0.307 0,0 z"
             style="fill:#ffffff;fill-opacity:1;fill-rule:evenodd;stroke:none"
             id="path108" /></g><g
           id="g110"
           transform="translate(56.3018,115.5947)"><path
             d="m 0,0 c -0.157,0.034 -0.303,0.006 -0.434,-0.092 -0.129,-0.092 -0.207,-0.215 -0.234,-0.364 -0.026,-0.151 0.046,-0.344 0.219,-0.581 l 0.261,-0.36 0.914,0.664 -0.225,0.309 C 0.322,-0.181 0.156,-0.038 0,0"
             style="fill:#ffffff;fill-opacity:1;fill-rule:evenodd;stroke:none"
             id="path112" /></g><g
           id="g114"
           transform="translate(103.3428,114.5664)"><path
             d="M 0,0 -1.146,1.521 -1.803,0.617 0,0 z"
             style="fill:#ffffff;fill-opacity:1;fill-rule:evenodd;stroke:none"
             id="path116" /></g><g
           id="g118"
           transform="translate(103.4814,148.6724)"><path
             d="M 0,0 -1.799,-0.618 -1.143,-1.522 0,0 z"
             style="fill:#ffffff;fill-opacity:1;fill-rule:evenodd;stroke:none"
             id="path120" /></g><g
           id="g122"
           transform="translate(84.7783,157.7554)"><path
             d="M 0,0 C 0.331,-0.065 0.605,-0.006 0.829,0.172 1.052,0.351 1.218,0.721 1.325,1.276 1.415,1.744 1.387,2.104 1.238,2.355 1.093,2.608 0.858,2.767 0.534,2.83 0.225,2.89 -0.046,2.83 -0.274,2.646 -0.506,2.465 -0.67,2.12 -0.769,1.612 -0.864,1.113 -0.843,0.733 -0.7,0.477 -0.555,0.221 -0.32,0.063 0,0"
             style="fill:#ffffff;fill-opacity:1;fill-rule:evenodd;stroke:none"
             id="path124" /></g><g
           id="g126"
           transform="translate(79.7861,98.2764)"><path
             d="m 0,0 c -18.397,0 -33.364,14.969 -33.364,33.362 -0.002,8.911 3.468,17.288 9.768,23.589 6.301,6.3 14.679,9.769 23.589,9.769 18.396,0 33.362,-14.966 33.364,-33.361 C 33.357,14.966 18.393,0 0,0 m 0.095,68.845 c -19.504,0 -35.311,-15.807 -35.311,-35.31 0.002,-19.502 15.811,-35.309 35.314,-35.312 19.502,0 35.31,15.806 35.308,35.308 0,19.504 -15.809,35.312 -35.311,35.314"
             style="fill:#ffffff;fill-opacity:1;fill-rule:evenodd;stroke:none"
             id="path128" /></g><g
           id="g130"
           transform="translate(87.3086,111.8789)"><path
             d="m 0,0 -0.402,3.921 c -0.287,1.761 -0.958,3.083 -0.958,3.083 1.48,0 3.299,2.146 3.299,2.146 0.981,1.561 1.221,2.671 1.221,2.671 l 0.23,0.763 c 0.902,0.035 3.278,4.119 3.278,4.119 0.165,2.102 -1.527,0.993 -1.527,0.993 -2.912,-1.335 -5.495,0.234 -5.495,0.234 -0.472,0.418 -1.745,0.269 -1.745,0.269 -1.908,-0.761 -3.905,0.42 -3.905,0.42 -1.004,-1.718 0.536,-4.808 0.536,-4.808 -0.774,0.189 -1.385,-0.61 -1.385,-0.61 l 0.011,0.074 c -0.162,-1.106 -0.685,-1.527 -0.685,-1.527 l -0.611,-0.379 c 3.674,5.688 -0.617,10.229 -0.617,10.229 -1.925,1.946 -3.511,1.758 -3.511,1.758 -1.157,-0.878 -1.451,-0.151 -1.451,-0.151 -0.089,0.417 -1.299,2.442 -1.299,2.442 0.523,0.725 0.304,2.214 0.304,2.214 -0.7,1.182 1.604,0.534 1.604,0.534 4.262,0.111 5.647,2.745 5.647,2.745 1.132,2.098 -1.146,1.832 -1.146,1.832 -1.234,-0.193 -3.512,0.002 -3.512,0.002 -2.659,0.499 -4.427,0.079 -4.427,0.079 l -3.814,-3.891 c -0.087,-0.86 -0.965,-10.635 -0.965,-10.635 l 4.302,-9.765 c 0.224,-0.66 0.586,-0.717 0.586,-0.717 l 1.199,0.027 c 0.73,-0.134 0.681,-0.404 0.681,-0.404 L -15.006,7.295 C -16.141,7.105 -15.979,6.248 -15.979,6.248 -16.14,5.16 -16.281,2.359 -16.281,2.359 l -0.012,-1.761 c -7.324,3.364 -12.422,10.746 -12.422,19.334 0,11.756 9.53,21.287 21.287,21.287 C 4.328,41.217 13.86,31.687 13.86,19.929 13.862,10.789 8.09,3.017 0,0 m -5.784,-1.274 c 0.275,2.147 0.465,5.044 0.465,5.044 0.341,1.609 0.403,0.214 0.403,0.214 0.043,-2.137 0.065,-3.997 0.076,-5.17 -0.311,-0.038 -0.628,-0.063 -0.944,-0.088 m -3.843,0.032 c 0.072,0.913 0.112,1.587 0.112,1.587 0.341,1.606 0.404,0.215 0.404,0.215 0.013,-0.642 0.023,-1.249 0.033,-1.834 -0.183,0.015 -0.369,0.012 -0.549,0.032 m 2.199,43.947 c -6.082,0 -11.801,-2.37 -16.102,-6.67 -4.301,-4.303 -6.669,-10.019 -6.667,-16.103 0,-12.555 10.215,-22.771 22.77,-22.771 12.557,0 22.774,10.213 22.774,22.768 C 15.345,32.485 5.128,42.702 -7.428,42.705"
             style="fill:#ffffff;fill-opacity:1;fill-rule:evenodd;stroke:none"
             id="path132" /></g><g
           id="g134"
           transform="translate(109.6982,127.4258)"><path
             d="m 0,0 c -0.269,-0.32 -0.667,-0.488 -1.195,-0.506 l 0.041,1.477 c 0.231,0.019 0.403,0.088 0.518,0.205 0.115,0.113 0.181,0.281 0.199,0.502 C -0.42,1.858 -0.447,2 -0.519,2.1 -0.586,2.197 -0.675,2.25 -0.785,2.26 -0.866,2.267 -0.94,2.234 -1.012,2.166 -1.084,2.1 -1.162,1.928 -1.244,1.659 -1.449,0.99 -1.641,0.515 -1.818,0.234 -1.993,-0.048 -2.197,-0.246 -2.432,-0.359 -2.665,-0.475 -2.92,-0.521 -3.196,-0.497 -3.52,-0.469 -3.811,-0.352 -4.067,-0.149 -4.325,0.053 -4.512,0.322 -4.626,0.655 -4.738,0.989 -4.772,1.4 -4.73,1.891 c 0.074,0.856 0.291,1.436 0.651,1.738 0.359,0.301 0.796,0.453 1.309,0.449 L -2.806,2.588 C -3.051,2.576 -3.239,2.527 -3.374,2.44 -3.594,2.297 -3.715,2.076 -3.74,1.777 -3.761,1.555 -3.723,1.381 -3.63,1.252 -3.536,1.12 -3.42,1.049 -3.282,1.037 c 0.132,-0.012 0.253,0.035 0.367,0.142 0.113,0.104 0.233,0.364 0.362,0.771 0.213,0.671 0.46,1.142 0.74,1.41 0.28,0.272 0.618,0.39 1.011,0.355 0.26,-0.023 0.498,-0.119 0.715,-0.288 C 0.132,3.255 0.293,3.013 0.398,2.699 0.505,2.387 0.534,1.967 0.49,1.441 0.434,0.797 0.271,0.315 0,0 m -2.353,-8.855 -1.168,0.449 0.571,1.488 -3.561,1.369 0.56,1.459 3.562,-1.367 0.571,1.488 1.169,-0.449 -1.704,-4.437 z m -3.451,-5.481 -5.217,1.44 0.961,1.324 0.824,-0.291 1.047,1.442 -0.534,0.689 0.94,1.294 2.981,-4.519 -1.002,-1.379 z m -24.012,-5.166 c -13.171,0 -23.886,10.719 -23.886,23.887 -0.001,6.381 2.482,12.379 6.994,16.891 4.511,4.511 10.51,6.995 16.891,6.995 13.171,0 23.886,-10.718 23.888,-23.889 0,-13.168 -10.716,-23.884 -23.887,-23.884 m -23.675,4.395 -1.531,2.106 c -0.333,0.458 -0.474,0.882 -0.422,1.268 0.052,0.385 0.278,0.727 0.681,1.018 0.412,0.3 0.827,0.41 1.242,0.328 0.414,-0.079 0.805,-0.373 1.175,-0.882 l 0.505,-0.695 1.521,1.104 0.924,-1.272 -4.095,-2.975 z m -5.248,9.349 4.046,3.592 0.588,-1.531 -0.693,-0.532 0.641,-1.664 0.868,0.073 0.575,-1.496 -5.412,-0.035 -0.613,1.593 z m -1.663,8.25 c -0.034,0.483 -0.018,0.854 0.048,1.115 0.064,0.261 0.203,0.477 0.416,0.648 0.212,0.173 0.48,0.269 0.8,0.291 0.282,0.021 0.529,-0.022 0.742,-0.128 0.21,-0.105 0.386,-0.257 0.527,-0.458 0.09,-0.128 0.169,-0.305 0.238,-0.535 0.049,0.192 0.102,0.331 0.158,0.421 0.036,0.06 0.12,0.149 0.247,0.267 0.128,0.119 0.228,0.2 0.299,0.241 l 1.411,0.856 0.125,-1.764 -1.486,-0.942 c -0.191,-0.119 -0.314,-0.222 -0.369,-0.309 -0.07,-0.119 -0.1,-0.248 -0.091,-0.39 l 0.01,-0.139 2.052,0.143 0.111,-1.569 -5.055,-0.351 -0.183,2.603 z m 1.09,10.38 1.224,-0.261 -0.33,-1.56 3.731,-0.796 -0.324,-1.532 -3.733,0.797 -0.33,-1.562 -1.224,0.261 0.986,4.653 z m 1.966,4.868 4.591,-2.142 -0.661,-1.423 -4.593,2.143 0.663,1.422 z m 3.285,5.298 c 0.275,0.363 0.547,0.623 0.816,0.772 0.27,0.151 0.554,0.23 0.85,0.236 0.296,0.007 0.593,-0.048 0.889,-0.167 0.297,-0.12 0.583,-0.285 0.86,-0.493 0.432,-0.326 0.731,-0.628 0.895,-0.908 0.164,-0.276 0.261,-0.562 0.291,-0.86 0.028,-0.296 -0.005,-0.563 -0.103,-0.803 -0.132,-0.331 -0.283,-0.607 -0.451,-0.829 l -1.399,-1.857 -4.047,3.051 1.399,1.858 z m 5.339,4.637 c 0.113,0.642 0.506,1.199 1.18,1.669 0.689,0.484 1.352,0.669 1.985,0.56 0.633,-0.109 1.183,-0.498 1.651,-1.165 0.34,-0.486 0.538,-0.942 0.592,-1.367 0.054,-0.423 -0.012,-0.83 -0.2,-1.22 -0.186,-0.388 -0.51,-0.743 -0.97,-1.065 -0.469,-0.327 -0.91,-0.524 -1.321,-0.588 -0.409,-0.067 -0.824,-0.003 -1.239,0.186 -0.418,0.19 -0.796,0.525 -1.136,1.012 -0.473,0.677 -0.656,1.336 -0.542,1.978 m 16.698,3.771 c -0.125,0.095 -0.399,0.169 -0.826,0.224 -0.697,0.095 -1.202,0.256 -1.516,0.485 -0.317,0.23 -0.491,0.541 -0.527,0.936 -0.022,0.26 0.031,0.511 0.16,0.753 0.131,0.245 0.339,0.446 0.629,0.602 0.291,0.16 0.701,0.263 1.225,0.309 0.646,0.055 1.147,-0.023 1.506,-0.233 0.36,-0.21 0.596,-0.572 0.706,-1.091 l -1.462,-0.215 c -0.059,0.225 -0.156,0.383 -0.291,0.474 -0.133,0.094 -0.309,0.13 -0.529,0.111 -0.183,-0.015 -0.316,-0.066 -0.401,-0.152 -0.085,-0.085 -0.123,-0.181 -0.114,-0.291 0.009,-0.082 0.053,-0.15 0.133,-0.207 0.079,-0.061 0.26,-0.107 0.541,-0.14 0.694,-0.089 1.195,-0.195 1.502,-0.321 0.309,-0.124 0.539,-0.291 0.692,-0.502 0.156,-0.211 0.245,-0.455 0.269,-0.73 0.029,-0.322 -0.034,-0.629 -0.19,-0.916 -0.155,-0.29 -0.386,-0.52 -0.695,-0.69 -0.309,-0.167 -0.708,-0.272 -1.197,-0.316 -0.859,-0.075 -1.467,0.039 -1.826,0.341 -0.361,0.302 -0.583,0.706 -0.672,1.211 l 1.475,0.222 c 0.054,-0.238 0.134,-0.414 0.245,-0.533 0.179,-0.192 0.417,-0.274 0.715,-0.247 0.223,0.021 0.389,0.087 0.499,0.199 0.113,0.116 0.163,0.244 0.151,0.381 -0.011,0.132 -0.079,0.244 -0.202,0.336 m 4.8,0.803 c 0.158,0.813 0.506,1.4 1.047,1.764 0.539,0.364 1.213,0.468 2.021,0.31 0.827,-0.161 1.422,-0.509 1.783,-1.04 0.362,-0.532 0.465,-1.197 0.31,-1.997 -0.112,-0.582 -0.303,-1.039 -0.572,-1.374 -0.267,-0.333 -0.605,-0.568 -1.016,-0.702 -0.409,-0.136 -0.889,-0.148 -1.441,-0.041 -0.561,0.111 -1.009,0.291 -1.343,0.54 -0.332,0.25 -0.573,0.59 -0.726,1.022 -0.155,0.43 -0.175,0.937 -0.063,1.518 m 8.279,-2.141 c 0.393,0.74 0.891,1.205 1.496,1.392 0.605,0.188 1.269,0.091 1.99,-0.292 0.563,-0.3 0.944,-0.649 1.146,-1.049 0.203,-0.399 0.254,-0.876 0.162,-1.433 l -1.365,0.379 c 0.031,0.159 0.038,0.282 0.024,0.371 -0.021,0.147 -0.071,0.278 -0.154,0.395 -0.082,0.117 -0.191,0.212 -0.33,0.284 -0.313,0.168 -0.62,0.168 -0.92,0.007 -0.226,-0.12 -0.446,-0.381 -0.658,-0.781 -0.263,-0.497 -0.37,-0.878 -0.317,-1.143 0.054,-0.263 0.216,-0.467 0.488,-0.612 0.266,-0.141 0.504,-0.172 0.716,-0.095 0.215,0.076 0.431,0.239 0.641,0.489 l 1.016,-1.011 c -0.261,-0.297 -0.541,-0.512 -0.837,-0.648 -0.295,-0.132 -0.605,-0.19 -0.925,-0.168 -0.322,0.023 -0.682,0.14 -1.082,0.353 -0.486,0.259 -0.846,0.542 -1.082,0.846 -0.23,0.307 -0.365,0.695 -0.4,1.171 -0.033,0.475 0.097,0.99 0.391,1.545 m 8.572,-2.442 1.167,-1.052 -3.388,-3.761 -1.167,1.05 3.388,3.763 z m 4.727,-4.971 1.004,-1.382 -2.977,-4.517 -0.962,1.327 0.529,0.692 -1.049,1.443 -0.821,-0.294 -0.941,1.297 5.217,1.434 z m 4.32,-7.948 -3.61,-1.243 0.797,-2.308 -1.179,-0.408 -1.308,3.792 4.789,1.647 0.511,-1.48 z M 0.37,7.538 -4.646,6.834 -4.866,8.388 0.15,9.09 0.37,7.538 z m -30.289,28.92 c -8.613,0 -16.71,-3.355 -22.8,-9.445 -6.09,-6.091 -9.444,-14.187 -9.443,-22.8 0,-17.78 14.467,-32.246 32.246,-32.246 l 0.004,0 c 17.778,0 32.243,14.463 32.243,32.242 -0.002,17.782 -14.47,32.249 -32.25,32.249"
             style="fill:#ffffff;fill-opacity:1;fill-rule:evenodd;stroke:none"
             id="path136" /></g></g></g></g></svg>