<?xml version="1.0" encoding="UTF-8" standalone="no"?>
<!-- Created with Inkscape (http://www.inkscape.org/) -->

<svg
   xmlns:dc="http://purl.org/dc/elements/1.1/"
   xmlns:cc="http://creativecommons.org/ns#"
   xmlns:rdf="http://www.w3.org/1999/02/22-rdf-syntax-ns#"
   xmlns:svg="http://www.w3.org/2000/svg"
   xmlns="http://www.w3.org/2000/svg"
   xmlns:sodipodi="http://sodipodi.sourceforge.net/DTD/sodipodi-0.dtd"
   xmlns:inkscape="http://www.inkscape.org/namespaces/inkscape"
   id="svg2"
   version="1.1"
   inkscape:version="0.47 r22583"
   width="401.24417"
   height="174.48091"
   xml:space="preserve"
   sodipodi:docname="logo_PSD.ai"><metadata
     id="metadata8"><rdf:RDF><cc:Work
         rdf:about=""><dc:format>image/svg+xml</dc:format><dc:type
           rdf:resource="http://purl.org/dc/dcmitype/StillImage" /><dc:title></dc:title></cc:Work></rdf:RDF></metadata><defs
     id="defs6"><inkscape:perspective
       sodipodi:type="inkscape:persp3d"
       inkscape:vp_x="0 : 0.5 : 1"
       inkscape:vp_y="0 : 1000 : 0"
       inkscape:vp_z="1 : 0.5 : 1"
       inkscape:persp3d-origin="0.5 : 0.33333333 : 1"
       id="perspective10" /><clipPath
       clipPathUnits="userSpaceOnUse"
       id="clipPath18"><path
         d="m 0,595.276 841.89,0 L 841.89,0 0,0 0,595.276 z"
         id="path20" /></clipPath></defs><sodipodi:namedview
     pagecolor="#ffffff"
     bordercolor="#666666"
     borderopacity="1"
     objecttolerance="10"
     gridtolerance="10"
     guidetolerance="10"
     inkscape:pageopacity="0"
     inkscape:pageshadow="2"
     inkscape:window-width="1280"
     inkscape:window-height="727"
     id="namedview4"
     showgrid="false"
     inkscape:zoom="0.66621506"
     inkscape:cx="202.63221"
     inkscape:cy="86.627015"
     inkscape:window-x="0"
     inkscape:window-y="25"
     inkscape:window-maximized="1"
     inkscape:current-layer="g12" /><g
     id="g12"
     inkscape:groupmode="layer"
     inkscape:label="logo_PSD"
     transform="matrix(1.25,0,0,-1.25,-323.54906,459.90141)"><g
       id="g14"><g
         id="g16"
         clip-path="url(#clipPath18)"><g
           id="g22"
           transform="translate(545.5776,308.6387)"><path
             d="m 0,0 -36.712,0 -9.421,-36.529 c -0.944,4.217 -4.181,7.518 -10.117,9.759 -7.191,2.766 -17.668,4.551 -23.257,5.979 -3.042,0.803 -4.63,1.784 -4.031,4.104 0.506,1.962 3.133,3.748 8.115,3.748 4.007,0 6.368,-1.338 5.441,-5.353 l 27.723,0 c 3.866,14.99 -9.466,19.987 -28.957,19.987 -19.005,0 -32.612,-5.25 -38.643,-14.716 C -111.134,-5.202 -118.352,0 -132.663,0 l -45.484,0 -16.617,-64.426 30.972,0 5.593,21.684 10.18,0 c 18.197,0 29.856,6.054 35.171,15.485 1.151,-4.204 4.839,-7.348 12.073,-9.239 l 20.602,-5.355 c 2.739,-0.713 4.691,-1.962 4.069,-4.373 -0.735,-2.854 -4.28,-5.263 -8.83,-5.263 -2.923,0 -4.666,0.802 -5.535,2.051 -0.845,1.339 -0.819,3.124 -0.358,4.909 l -29.672,0 c -4.328,-16.776 11.757,-21.594 30.601,-21.594 17.994,0 32.806,4.382 39.882,14.543 l -3.312,-12.848 38.553,0 c 24.041,0 42.526,12.047 47.543,31.499 C 37.693,-13.831 31.297,0 0,0 m -140.067,-21.148 c -1.174,-4.551 -4.828,-6.961 -12.841,-6.961 l -1.516,0 3.475,13.475 3.249,0 c 6.714,0 8.807,-1.964 7.633,-6.514 M 0.896,-32.213 c -1.61,-6.246 -3.434,-10.797 -6.182,-13.475 -2.616,-2.587 -5.931,-4.104 -10.913,-4.104 l -3.033,0 9.068,35.158 3.032,0 c 4.982,0 7.514,-1.517 8.796,-4.105 1.367,-2.677 0.844,-7.227 -0.768,-13.474"
             style="fill:#000000;fill-opacity:1;fill-rule:nonzero;stroke:none"
             id="path24" /></g><g
           id="g26"
           transform="translate(346.5039,228.542)"><path
             d="m 0,0 1.365,0 1.226,4.339 1.855,0 C 6.272,4.38 8.136,5.035 8.718,7.096 9.327,9.252 7.938,9.935 6.086,9.853 l -3.302,0 L 0,0 z m 2.922,5.513 0.895,3.166 2.142,0 c 0.164,0 1.797,0.082 1.327,-1.583 C 6.815,5.431 5.228,5.513 5.065,5.513 l -2.143,0 z"
             style="fill:#000000;fill-opacity:1;fill-rule:nonzero;stroke:none"
             id="path28" /></g><g
           id="g30"
           transform="translate(355.0264,228.542)"><path
             d="m 0,0 1.789,2.565 4.572,0 L 6.7,0 8.187,0 6.987,9.853 5.526,9.853 -1.405,0 0,0 z m 5.813,8.502 0.442,-4.763 -3.67,0 3.228,4.763 z"
             style="fill:#000000;fill-opacity:1;fill-rule:nonzero;stroke:none"
             id="path32" /></g><g
           id="g34"
           transform="translate(369.1304,237.2207)"><path
             d="M 0,0 2.251,0 C 3.747,-0.068 3.895,-0.751 3.675,-1.528 3.456,-2.306 2.922,-2.989 1.388,-3.056 l -2.252,0 L 0,0 z m 0.743,-4.229 c 0.534,-0.042 1.091,0 1.36,-0.452 C 2.414,-5.171 2.187,-5.978 2.045,-6.864 1.948,-7.451 1.93,-8.092 1.887,-8.679 l 1.461,0 c -0.093,0.927 0.095,1.979 0.222,2.961 0.162,1.107 0.176,1.733 -0.93,2.02 l 0.007,0.028 c 1.224,0.272 2.191,1.186 2.527,2.374 0.551,1.951 -1.008,2.47 -2.658,2.47 l -3.522,0 -2.783,-9.853 1.364,0 1.257,4.45 1.911,0 z"
             style="fill:#000000;fill-opacity:1;fill-rule:nonzero;stroke:none"
             id="path36" /></g><g
           id="g38"
           transform="translate(377.1699,228.542)"><path
             d="m 0,0 1.364,0 2.452,8.679 3.302,0 0.332,1.174 -7.969,0 -0.331,-1.174 3.302,0 L 0,0 z"
             style="fill:#000000;fill-opacity:1;fill-rule:nonzero;stroke:none"
             id="path40" /></g><g
           id="g42"
           transform="translate(385.4058,228.542)"><path
             d="M 0,0 2.784,9.853 1.42,9.853 -1.365,0 0,0 z"
             style="fill:#000000;fill-opacity:1;fill-rule:nonzero;stroke:none"
             id="path44" /></g><g
           id="g46"
           transform="translate(392.4531,237.2207)"><path
             d="M 0,0 1.992,0 C 3.37,0 3.949,-0.561 4.173,-1.118 4.521,-1.965 4.438,-2.839 4.18,-3.753 3.921,-4.667 3.511,-5.54 2.685,-6.386 2.144,-6.945 1.25,-7.505 -0.129,-7.505 l -1.992,0 L 0,0 z m -3.817,-8.679 3.275,0 c 0.922,0.028 1.91,0.096 2.844,0.601 1.691,0.914 2.782,2.456 3.31,4.325 0.529,1.87 0.309,3.412 -0.865,4.326 C 4.098,1.079 3.148,1.146 2.242,1.174 l -3.275,0 -2.784,-9.853 z"
             style="fill:#000000;fill-opacity:1;fill-rule:nonzero;stroke:none"
             id="path48" /></g><g
           id="g50"
           transform="translate(400.3018,233.4678)"><path
             d="m 0,0 c -0.814,-2.879 -0.016,-5.131 3.053,-5.131 3.071,0 5.14,2.252 5.953,5.131 C 9.819,2.88 9.023,5.131 5.953,5.131 2.882,5.131 0.814,2.88 0,0 M 1.433,0 C 2.027,2.103 3.124,3.957 5.621,3.957 8.118,3.957 8.167,2.103 7.574,0 6.995,-2.047 5.882,-3.957 3.385,-3.957 0.888,-3.957 0.854,-2.047 1.433,0"
             style="fill:#000000;fill-opacity:1;fill-rule:nonzero;stroke:none"
             id="path52" /></g><g
           id="g54"
           transform="translate(415.7231,231.4209)"><path
             d="m 0,0 c -0.68,-2.211 0.575,-3.084 2.635,-3.084 1.993,0 4.221,0.792 4.852,3.028 C 8.19,2.43 5.721,2.43 4.072,3.017 3.29,3.289 2.518,3.356 2.834,4.476 3.166,5.649 4.589,6.005 5.557,6.005 6.54,6.005 7.36,5.623 7.103,4.518 l 1.433,0 C 9.075,6.427 7.636,7.178 5.958,7.178 4.115,7.178 1.941,6.387 1.336,4.245 0.711,2.034 3.309,1.665 4.832,1.31 5.606,1.146 6.284,0.751 6.015,-0.204 5.624,-1.583 4.167,-1.91 3.049,-1.91 1.725,-1.91 1.067,-1.393 1.433,0 L 0,0 z"
             style="fill:#000000;fill-opacity:1;fill-rule:nonzero;stroke:none"
             id="path56" /></g><g
           id="g58"
           transform="translate(426.2603,233.4678)"><path
             d="M 0,0 C -0.815,-2.879 -0.019,-5.131 3.054,-5.131 6.122,-5.131 8.192,-2.879 9.006,0 9.819,2.88 9.022,5.131 5.952,5.131 2.881,5.131 0.813,2.88 0,0 M 1.433,0 C 2.026,2.103 3.125,3.957 5.621,3.957 8.118,3.957 8.166,2.103 7.573,0 6.995,-2.047 5.881,-3.957 3.384,-3.957 0.888,-3.957 0.853,-2.047 1.433,0"
             style="fill:#000000;fill-opacity:1;fill-rule:nonzero;stroke:none"
             id="path60" /></g><g
           id="g62"
           transform="translate(446.1577,235.8564)"><path
             d="m 0,0 c 0.348,1.761 -0.81,2.688 -2.689,2.742 -3.278,0.097 -5.134,-2.716 -5.817,-5.131 -0.78,-2.757 -0.289,-5.131 2.615,-5.131 1.924,0 3.898,1.092 4.5,2.744 l -1.432,0 c -0.461,-1.051 -1.562,-1.57 -2.613,-1.57 -2.142,0 -2.213,1.924 -1.638,3.957 0.49,1.734 1.566,3.957 3.998,3.957 1.009,0 1.841,-0.627 1.644,-1.568 L 0,0 z"
             style="fill:#000000;fill-opacity:1;fill-rule:nonzero;stroke:none"
             id="path64" /></g><g
           id="g66"
           transform="translate(447.9917,228.542)"><path
             d="M 0,0 2.783,9.853 1.42,9.853 -1.365,0 0,0 z"
             style="fill:#000000;fill-opacity:1;fill-rule:nonzero;stroke:none"
             id="path68" /></g><g
           id="g70"
           transform="translate(451.5493,228.542)"><path
             d="m 0,0 1.79,2.565 4.57,0 L 6.7,0 8.188,0 6.987,9.853 5.526,9.853 -1.405,0 0,0 z m 5.813,8.502 0.442,-4.763 -3.67,0 3.228,4.763 z"
             style="fill:#000000;fill-opacity:1;fill-rule:nonzero;stroke:none"
             id="path72" /></g><g
           id="g74"
           transform="translate(467.9097,228.542)"><path
             d="m 0,0 0.332,1.174 -4.586,0 2.451,8.679 -1.363,0 L -5.951,0 0,0 z"
             style="fill:#000000;fill-opacity:1;fill-rule:nonzero;stroke:none"
             id="path76" /></g><g
           id="g78"
           transform="translate(478.7202,237.2207)"><path
             d="M 0,0 1.994,0 C 3.371,0 3.948,-0.561 4.174,-1.118 4.521,-1.965 4.438,-2.839 4.181,-3.753 3.922,-4.667 3.512,-5.54 2.686,-6.386 2.146,-6.945 1.25,-7.505 -0.129,-7.505 l -1.99,0 L 0,0 z m -3.816,-8.679 3.275,0 c 0.924,0.028 1.91,0.096 2.844,0.601 1.691,0.914 2.781,2.456 3.311,4.325 0.528,1.87 0.308,3.412 -0.866,4.326 C 4.099,1.079 3.149,1.146 2.244,1.174 l -3.274,0 -2.786,-9.853 z"
             style="fill:#000000;fill-opacity:1;fill-rule:nonzero;stroke:none"
             id="path80" /></g><g
           id="g82"
           transform="translate(491.688,228.542)"><path
             d="m 0,0 0.33,1.174 -4.926,0 0.922,3.261 4.584,0 0.334,1.173 -4.588,0 0.868,3.071 4.819,0 0.33,1.174 -6.18,0 L -6.291,0 0,0 z"
             style="fill:#000000;fill-opacity:1;fill-rule:nonzero;stroke:none"
             id="path84" /></g><g
           id="g86"
           transform="translate(503.7856,228.542)"><path
             d="m 0,0 1.364,0 2.783,9.853 -2.278,0 -5.077,-8.121 -0.027,0 -0.544,8.121 -2.445,0 L -9.007,0 l 1.365,0 2.506,8.87 0.028,0 0.645,-8.87 1.282,0 5.659,8.87 0.028,0 L 0,0 z"
             style="fill:#000000;fill-opacity:1;fill-rule:nonzero;stroke:none"
             id="path88" /></g><g
           id="g90"
           transform="translate(509.4165,233.4678)"><path
             d="M 0,0 C -0.812,-2.879 -0.016,-5.131 3.056,-5.131 6.125,-5.131 8.194,-2.879 9.007,0 9.821,2.88 9.024,5.131 5.954,5.131 2.884,5.131 0.813,2.88 0,0 M 1.435,0 C 2.028,2.103 3.125,3.957 5.622,3.957 8.118,3.957 8.168,2.103 7.575,0 6.996,-2.047 5.884,-3.957 3.386,-3.957 0.89,-3.957 0.854,-2.047 1.435,0"
             style="fill:#000000;fill-opacity:1;fill-rule:nonzero;stroke:none"
             id="path92" /></g><g
           id="g94"
           transform="translate(529.3159,235.8564)"><path
             d="m 0,0 c 0.348,1.761 -0.809,2.688 -2.691,2.742 -3.275,0.097 -5.133,-2.716 -5.816,-5.131 -0.778,-2.757 -0.29,-5.131 2.617,-5.131 1.924,0 3.898,1.092 4.5,2.744 l -1.432,0 c -0.461,-1.051 -1.564,-1.57 -2.614,-1.57 -2.144,0 -2.212,1.924 -1.638,3.957 0.488,1.734 1.568,3.957 3.996,3.957 1.012,0 1.844,-0.627 1.646,-1.568 L 0,0 z"
             style="fill:#000000;fill-opacity:1;fill-rule:nonzero;stroke:none"
             id="path96" /></g><g
           id="g98"
           transform="translate(533.5337,237.2207)"><path
             d="M 0,0 2.251,0 C 3.745,-0.068 3.896,-0.751 3.675,-1.528 3.454,-2.306 2.922,-2.989 1.388,-3.056 l -2.252,0 L 0,0 z m 0.741,-4.229 c 0.535,-0.042 1.093,0 1.362,-0.452 0.31,-0.49 0.084,-1.297 -0.057,-2.183 -0.1,-0.587 -0.114,-1.228 -0.159,-1.815 l 1.46,0 c -0.092,0.927 0.095,1.979 0.222,2.961 0.162,1.107 0.176,1.733 -0.93,2.02 l 0.008,0.028 c 1.223,0.272 2.192,1.186 2.526,2.374 0.552,1.951 -1.006,2.47 -2.657,2.47 l -3.521,0 -2.784,-9.853 1.364,0 1.257,4.45 1.909,0 z"
             style="fill:#000000;fill-opacity:1;fill-rule:nonzero;stroke:none"
             id="path100" /></g><g
           id="g102"
           transform="translate(540.0171,228.542)"><path
             d="m 0,0 1.789,2.565 4.571,0 L 6.7,0 8.188,0 6.986,9.853 5.525,9.853 -1.406,0 0,0 z m 5.814,8.502 0.441,-4.763 -3.671,0 3.23,4.763 z"
             style="fill:#000000;fill-opacity:1;fill-rule:nonzero;stroke:none"
             id="path104" /></g><g
           id="g106"
           transform="translate(551.6421,228.542)"><path
             d="m 0,0 1.363,0 2.453,8.679 3.303,0 0.331,1.174 -7.969,0 -0.332,-1.174 3.302,0 L 0,0 z"
             style="fill:#000000;fill-opacity:1;fill-rule:nonzero;stroke:none"
             id="path108" /></g><g
           id="g110"
           transform="translate(557.8159,228.542)"><path
             d="m 0,0 1.793,2.565 4.57,0 L 6.701,0 8.189,0 6.986,9.853 5.527,9.853 -1.404,0 0,0 z m 5.815,8.502 0.441,-4.763 -3.668,0 3.227,4.763 z"
             style="fill:#000000;fill-opacity:1;fill-rule:nonzero;stroke:none"
             id="path112" /></g><g
           id="g114"
           transform="translate(306.7515,303.7954)"><path
             d="m 0,0 c 0.328,1.257 -0.17,2.101 -1.574,2.101 l -35.171,0.011 c -6.148,0 -8.421,6.276 -4.616,10.649 l 49.83,49.624 c 2.323,2.312 6.133,2.32 8.467,0.017 L 63.359,22.237 c 2.333,-2.303 1.506,-4.254 -1.772,-4.256 L 33.533,17.993 11.41,-69.439 c -0.698,-3.203 -3.951,-5.823 -7.229,-5.823 l -47.237,0 c -3.278,0 -5.407,2.624 -4.731,5.832 l 7.72,30.324 c 0.675,3.208 3.91,5.763 7.188,5.753 l 18.732,0 c 3.278,-0.012 6.526,2.602 7.217,5.806 L 0,0 z"
             style="fill:#000000;fill-opacity:1;fill-rule:nonzero;stroke:none"
             id="path116" /></g><g
           id="g118"
           transform="translate(315.4111,313.4785)"><path
             d="m 0,0 -29.875,0 c -5.896,0 -7.585,4.418 -3.478,8.525 l 44.085,44.183 c 2.327,2.308 6.123,2.314 8.456,0.011 L 62.937,12.553 C 65.27,10.25 64.532,8.295 61.254,8.294 L 33.111,8.298 10.989,-79.123 c -0.699,-3.202 -3.952,-5.823 -7.23,-5.823 l -47.237,0 c -3.278,0 -5.407,2.624 -4.731,5.833 l 5.788,23.142 c 0.676,3.207 3.911,5.831 7.189,5.83 l 18.884,-0.005 c 3.331,0 6.536,2.616 7.24,5.817 L 1.404,-1.893 C 1.621,-0.849 1.515,0 0,0"
             style="fill:#ed1d24;fill-opacity:1;fill-rule:nonzero;stroke:none"
             id="path120" /></g><g
           id="g122"
           transform="translate(355.9878,318.584)"><path
             d="m 0,0 -20.536,-81.239 c -1.213,-4.317 -6.291,-8.745 -11.229,-8.823 l -44.12,0 c -1.639,0 -2.989,0.657 -3.844,1.712 -0.854,1.057 -1.212,2.514 -0.87,4.117 l 3.924,16.042 c 0.811,3.109 3.819,5.778 7.208,5.778 l 19.107,0 c 3.075,0 6.696,2.633 6.961,5.219 l 14.686,57.991 c 0.352,1.512 -0.231,2.407 -1.74,2.407 l -25.57,0 c -3.062,0 -4.657,2.714 -1.989,5.382 l 19.095,18.91 20.341,20.105 c 2.378,2.379 6.298,2.186 8.481,0.003 L 30.033,8.026 C 31.861,6.199 29.639,3.193 27.62,3.193 l -23.479,0 C 1.929,3.239 0.565,2.117 0,0"
             style="fill:#f68b1f;fill-opacity:1;fill-rule:nonzero;stroke:none"
             id="path124" /></g></g></g></g></svg>