<?xml version="1.0" encoding="UTF-8" standalone="no"?>
<!-- Created with Inkscape (http://www.inkscape.org/) -->

<svg
   xmlns:dc="http://purl.org/dc/elements/1.1/"
   xmlns:cc="http://creativecommons.org/ns#"
   xmlns:rdf="http://www.w3.org/1999/02/22-rdf-syntax-ns#"
   xmlns:svg="http://www.w3.org/2000/svg"
   xmlns="http://www.w3.org/2000/svg"
   xmlns:sodipodi="http://sodipodi.sourceforge.net/DTD/sodipodi-0.dtd"
   xmlns:inkscape="http://www.inkscape.org/namespaces/inkscape"
   id="svg2974"
   version="1.1"
   inkscape:version="0.47+devel r"
   width="765"
   height="990"
   xml:space="preserve"
   sodipodi:docname="Partido_Comunista_Portugues.eps"><metadata
     id="metadata2980"><rdf:RDF><cc:Work
         rdf:about=""><dc:format>image/svg+xml</dc:format><dc:type
           rdf:resource="http://purl.org/dc/dcmitype/StillImage" /><dc:title></dc:title></cc:Work></rdf:RDF></metadata><defs
     id="defs2978"><clipPath
       clipPathUnits="userSpaceOnUse"
       id="clipPath3004"><path
         d="m 1842.52,638.145 -1757.4809,0 0,73.812 1757.4809,0 0,-73.812 z"
         clip-rule="evenodd"
         id="path3006" /></clipPath></defs><sodipodi:namedview
     pagecolor="#ffffff"
     bordercolor="#666666"
     borderopacity="1"
     objecttolerance="10"
     gridtolerance="10"
     guidetolerance="10"
     inkscape:pageopacity="0"
     inkscape:pageshadow="2"
     inkscape:window-width="1440"
     inkscape:window-height="827"
     id="namedview2976"
     showgrid="false"
     inkscape:zoom="1.7212163"
     inkscape:cx="209.15932"
     inkscape:cy="126.35431"
     inkscape:window-x="0"
     inkscape:window-y="25"
     inkscape:window-maximized="1"
     inkscape:current-layer="g2982" /><g
     id="g2982"
     inkscape:groupmode="layer"
     inkscape:label="ink_ext_XXXXXX"
     transform="matrix(1.25,0,0,-1.25,0,990)"><g
       id="g2984"
       transform="scale(0.1,0.1)"><path
         d="m 0,0 1927.56,0 0,1927.56 L 0,1927.56 0,0 z"
         style="fill:#ffffff;fill-opacity:1;fill-rule:evenodd;stroke:none"
         id="path2986" /><path
         d="m 85.0391,706.875 1756.56,0 0,582.539 -1756.56,0 0,-582.539 z"
         style="fill:#e41d25;fill-opacity:1;fill-rule:evenodd;stroke:none"
         id="path2988" /><path
         d="m 153.461,1186.54 0,-17.5 c 0,0 73.34,9.41 73.34,-80.86 l 0,-210.633 c 0,0 9.406,-69.582 -71.461,-69.582 l 0,-15.043 236.957,0 0,16.922 c 0,0 -86.508,5.644 -88.391,65.824 l 0,293.372 c 0,0 109.078,0 109.078,-99.66 0,0 5.641,-80.872 -63.941,-92.157 0,0 -26.328,-16.926 -1.883,-20.688 0,0 152.328,16.926 152.328,118.485 0,0 24.45,116.6 -195.582,114.71 l -150.445,-3.19"
         style="fill:#ffffff;fill-opacity:1;fill-rule:evenodd;stroke:none"
         id="path2990" /><path
         d="m 933.918,1186.54 0,-17.5 c 0,0 73.342,9.41 73.342,-80.86 l 0,-210.633 c 0,0 9.4,-69.582 -71.463,-69.582 l 0,-15.043 236.963,0 0,16.922 c 0,0 -86.51,5.644 -88.39,65.824 l 0,293.372 c 0,0 109.07,0 109.07,-99.66 0,0 5.64,-80.872 -63.94,-92.157 0,0 -26.32,-16.926 -1.88,-20.688 0,0 152.33,16.926 152.33,118.485 0,0 24.45,116.6 -195.58,114.71 l -150.452,-3.19"
         style="fill:#ffffff;fill-opacity:1;fill-rule:evenodd;stroke:none"
         id="path2992" /><path
         d="m 903.828,1169.04 0,-114.71 -22.57,0 c 0,0 -5.645,118.47 -124.121,118.47 0,0 -141.047,-1.88 -141.047,-184.296 0,0 9.402,-178.66 148.57,-178.66 0,0 90.266,-18.801 141.043,120.363 l 18.809,0 c 0,0 -7.309,-124.66 -67.7,-137.285 0,0 -14.308,-5.777 -37.613,-7.527 0,0 -293.379,-48.899 -293.379,203.109 0,0 11.285,306.536 378.008,180.536"
         style="fill:#ffffff;fill-opacity:1;fill-rule:evenodd;stroke:none"
         id="path2994" /><path
         d="m 1771.77,820.355 -96.19,71.114 c 16.06,22.801 27.38,49.457 32.28,78.801 17.44,104.48 -53.13,203.33 -157.61,220.77 -24.41,4.07 -48.5,3.35 -71.33,-1.49 13.32,1.18 26.99,0.71 40.78,-1.59 87.63,-14.63 146.8,-97.52 132.18,-185.15 -4.47,-26.783 -15.34,-50.908 -30.76,-71.083 l -80.13,59.238 54.35,58.495 -69.28,16.75 -32.86,-36.82 -14.91,8.38 -18.31,-20.66 13.36,-13.35 -41.54,-48.721 45.49,-34.312 43.69,48.363 74.26,-64.145 c -34.63,-28.386 -80.87,-42.257 -128.51,-34.304 -32.33,5.402 -60.78,20.101 -83.09,40.898 l -12.15,-32.691 c 0.04,-0.039 0.07,-0.075 0.1,-0.118 l -26.8,-72.339 23.44,-23.012 11.52,11.723 -8.63,13.718 28.37,42.719 c 24.61,-19.555 54.38,-33.332 87.58,-38.875 60.19,-10.047 118.49,9.102 160.45,47.113 l 87.5,-75.586 36.75,36.164"
         style="fill:#ffffff;fill-opacity:1;fill-rule:evenodd;stroke:none"
         id="path2996" /><path
         d="m 1456.75,1187.5 -31.96,4.64 -14.29,28.97 -14.3,-28.97 -31.97,-4.64 23.13,-22.55 -5.46,-31.84 28.6,15.03 28.59,-15.03 -5.46,31.84 23.12,22.55 0,0 z m -46.75,-31.32 -19.77,-10.39 3.77,22.01 -15.98,15.59 22.1,3.21 9.88,20.03 9.89,-20.03 22.1,-3.21 -15.99,-15.59 3.77,-22.01 -19.77,10.39"
         style="fill:#ffffff;fill-opacity:1;fill-rule:evenodd;stroke:none"
         id="path2998" /><g
         id="g3000"><g
           id="g3002"
           clip-path="url(#clipPath3004)"><path
             d="M 963.781,-661.512 -372.781,675.051 -172.297,875.535 1164.26,-461.027"
             style="fill:#00a650;fill-opacity:1;fill-rule:nonzero;stroke:none"
             id="path3008" /><path
             d="m 1164.26,-461.027 -1336.557,1336.562 7.309,7.309 1336.558,-1336.559"
             style="fill:#00a650;fill-opacity:1;fill-rule:nonzero;stroke:none"
             id="path3010" /><path
             d="m 1171.57,-453.715 -1336.558,1336.559 7.308,7.308 1336.56,-1336.558"
             style="fill:#03a74f;fill-opacity:1;fill-rule:nonzero;stroke:none"
             id="path3012" /><path
             d="m 1178.88,-446.406 -1336.56,1336.558 7.309,7.313 1336.561,-1336.563"
             style="fill:#06a84e;fill-opacity:1;fill-rule:nonzero;stroke:none"
             id="path3014" /><path
             d="m 1186.19,-439.098 -1336.561,1336.563 7.312,7.308 L 1193.5,-431.789"
             style="fill:#09a94d;fill-opacity:1;fill-rule:nonzero;stroke:none"
             id="path3016" /><path
             d="M 1193.5,-431.789 -143.059,904.773 -135.75,912.082 1200.81,-424.48"
             style="fill:#0caa4c;fill-opacity:1;fill-rule:nonzero;stroke:none"
             id="path3018" /><path
             d="m 1200.81,-424.48 -1336.56,1336.562 7.309,7.309 1336.561,-1336.559"
             style="fill:#0fab4b;fill-opacity:1;fill-rule:nonzero;stroke:none"
             id="path3020" /><path
             d="m 1208.12,-417.168 -1336.561,1336.559 7.308,7.308 1336.563,-1336.558"
             style="fill:#12ab4a;fill-opacity:1;fill-rule:nonzero;stroke:none"
             id="path3022" /><path
             d="m 1215.43,-409.859 -1336.563,1336.558 7.309,7.309 1336.564,-1336.559"
             style="fill:#16ad49;fill-opacity:1;fill-rule:nonzero;stroke:none"
             id="path3024" /><path
             d="M 1222.74,-402.551 -113.824,934.008 -106.512,941.32 1230.05,-395.242"
             style="fill:#19ad48;fill-opacity:1;fill-rule:nonzero;stroke:none"
             id="path3026" /><path
             d="M 1230.05,-395.242 -106.512,941.32 -99.2031,948.629 1237.36,-387.934"
             style="fill:#1cae47;fill-opacity:1;fill-rule:nonzero;stroke:none"
             id="path3028" /><path
             d="M 1237.36,-387.934 -99.2031,948.629 -91.8945,955.938 1244.66,-380.625"
             style="fill:#1faf46;fill-opacity:1;fill-rule:nonzero;stroke:none"
             id="path3030" /><path
             d="M 1244.67,-380.625 -91.8945,955.938 -84.5859,963.246 1251.98,-373.312"
             style="fill:#22b045;fill-opacity:1;fill-rule:nonzero;stroke:none"
             id="path3032" /><path
             d="M 1251.98,-373.312 -84.5859,963.246 -77.2773,970.555 1259.29,-366.004"
             style="fill:#25b144;fill-opacity:1;fill-rule:nonzero;stroke:none"
             id="path3034" /><path
             d="M 1259.29,-366.004 -77.2773,970.555 -69.9648,977.867 1266.59,-358.695"
             style="fill:#28b243;fill-opacity:1;fill-rule:nonzero;stroke:none"
             id="path3036" /><path
             d="M 1266.59,-358.695 -69.9648,977.867 -62.6562,985.176 1273.9,-351.387"
             style="fill:#2bb342;fill-opacity:1;fill-rule:nonzero;stroke:none"
             id="path3038" /><path
             d="M 1273.9,-351.387 -62.6562,985.176 -55.3477,992.484 1281.21,-344.078"
             style="fill:#2fb441;fill-opacity:1;fill-rule:nonzero;stroke:none"
             id="path3040" /><path
             d="M 1281.21,-344.078 -55.3477,992.484 -48.0391,999.793 1288.52,-336.766"
             style="fill:#32b540;fill-opacity:1;fill-rule:nonzero;stroke:none"
             id="path3042" /><path
             d="M 1288.52,-336.766 -48.0391,999.793 -40.7305,1007.1 1295.83,-329.457"
             style="fill:#35b63f;fill-opacity:1;fill-rule:nonzero;stroke:none"
             id="path3044" /><path
             d="M 1295.83,-329.457 -40.7305,1007.1 l 7.3086,7.31 L 1303.14,-322.148"
             style="fill:#38b73e;fill-opacity:1;fill-rule:nonzero;stroke:none"
             id="path3046" /><path
             d="M 1303.14,-322.148 -33.4219,1014.41 l 7.3125,7.31 L 1310.45,-314.84"
             style="fill:#3bb83d;fill-opacity:1;fill-rule:nonzero;stroke:none"
             id="path3048" /><path
             d="m 1310.45,-314.84 -1336.5594,1336.56 7.3086,7.31 L 1317.76,-307.531"
             style="fill:#3eb93c;fill-opacity:1;fill-rule:nonzero;stroke:none"
             id="path3050" /><path
             d="M 1317.76,-307.531 -18.8008,1029.03 l 7.3086,7.31 L 1325.07,-300.219"
             style="fill:#41b93c;fill-opacity:1;fill-rule:nonzero;stroke:none"
             id="path3052" /><path
             d="M 1325.07,-300.219 -11.4922,1036.34 -4.18359,1043.65 1332.38,-292.91"
             style="fill:#44ba3b;fill-opacity:1;fill-rule:nonzero;stroke:none"
             id="path3054" /><path
             d="M 1332.38,-292.91 -4.18359,1043.65 3.125,1050.96 1339.69,-285.602"
             style="fill:#48bb39;fill-opacity:1;fill-rule:nonzero;stroke:none"
             id="path3056" /><path
             d="M 1339.69,-285.602 3.125,1050.96 10.4375,1058.27 1347,-278.293"
             style="fill:#4bbc39;fill-opacity:1;fill-rule:nonzero;stroke:none"
             id="path3058" /><path
             d="M 1347,-278.293 10.4375,1058.27 17.7461,1065.58 1354.3,-270.984"
             style="fill:#4ebd38;fill-opacity:1;fill-rule:nonzero;stroke:none"
             id="path3060" /><path
             d="M 1354.3,-270.984 17.7461,1065.58 25.0547,1072.89 1361.61,-263.676"
             style="fill:#51be37;fill-opacity:1;fill-rule:nonzero;stroke:none"
             id="path3062" /><path
             d="M 1361.62,-263.676 25.0547,1072.89 32.3633,1080.2 1368.93,-256.363"
             style="fill:#54bf36;fill-opacity:1;fill-rule:nonzero;stroke:none"
             id="path3064" /><path
             d="M 1368.93,-256.363 32.3633,1080.2 39.6719,1087.5 1376.23,-249.055"
             style="fill:#57c035;fill-opacity:1;fill-rule:nonzero;stroke:none"
             id="path3066" /><path
             d="M 1376.23,-249.055 39.6719,1087.5 46.9844,1094.82 1383.54,-241.746"
             style="fill:#5ac134;fill-opacity:1;fill-rule:nonzero;stroke:none"
             id="path3068" /><path
             d="M 1383.54,-241.746 46.9844,1094.82 l 7.3086,7.3 1336.557,-1336.558"
             style="fill:#5dc233;fill-opacity:1;fill-rule:nonzero;stroke:none"
             id="path3070" /><path
             d="M 1390.85,-234.438 54.293,1102.12 61.6016,1109.43 1398.16,-227.129"
             style="fill:#61c332;fill-opacity:1;fill-rule:nonzero;stroke:none"
             id="path3072" /><path
             d="M 1398.16,-227.129 61.6016,1109.43 68.9102,1116.74 1405.47,-219.816"
             style="fill:#64c431;fill-opacity:1;fill-rule:nonzero;stroke:none"
             id="path3074" /><path
             d="M 1405.47,-219.816 68.9102,1116.74 76.2188,1124.05 1412.78,-212.508"
             style="fill:#67c530;fill-opacity:1;fill-rule:nonzero;stroke:none"
             id="path3076" /><path
             d="M 1412.78,-212.508 76.2188,1124.05 83.5273,1131.36 1420.09,-205.199"
             style="fill:#6ac52f;fill-opacity:1;fill-rule:nonzero;stroke:none"
             id="path3078" /><path
             d="M 1420.09,-205.199 83.5273,1131.36 90.8398,1138.67 1427.4,-197.891"
             style="fill:#6dc72e;fill-opacity:1;fill-rule:nonzero;stroke:none"
             id="path3080" /><path
             d="M 1427.4,-197.891 90.8398,1138.67 98.1484,1145.98 1434.71,-190.582"
             style="fill:#70c72d;fill-opacity:1;fill-rule:nonzero;stroke:none"
             id="path3082" /><path
             d="M 1434.71,-190.582 98.1484,1145.98 l 7.3086,7.31 1336.563,-1336.56"
             style="fill:#73c82c;fill-opacity:1;fill-rule:nonzero;stroke:none"
             id="path3084" /><path
             d="M 1442.02,-183.27 105.457,1153.29 112.766,1160.6 1449.33,-175.961"
             style="fill:#76c92b;fill-opacity:1;fill-rule:nonzero;stroke:none"
             id="path3086" /><path
             d="M 1449.33,-175.961 112.766,1160.6 l 7.308,7.31 1336.566,-1336.562"
             style="fill:#7aca2a;fill-opacity:1;fill-rule:nonzero;stroke:none"
             id="path3088" /><path
             d="M 1456.64,-168.652 120.074,1167.91 l 7.313,7.31 1336.563,-1336.564"
             style="fill:#7dcb29;fill-opacity:1;fill-rule:nonzero;stroke:none"
             id="path3090" /><path
             d="M 1463.95,-161.344 127.387,1175.22 l 7.308,7.31 1336.555,-1336.565"
             style="fill:#80cc28;fill-opacity:1;fill-rule:nonzero;stroke:none"
             id="path3092" /><path
             d="M 1471.25,-154.035 134.695,1182.53 l 7.309,7.31 1336.556,-1336.567"
             style="fill:#83cd27;fill-opacity:1;fill-rule:nonzero;stroke:none"
             id="path3094" /><path
             d="M 1478.57,-146.727 142.004,1189.84 l 7.308,7.3 1336.568,-1336.554"
             style="fill:#86ce26;fill-opacity:1;fill-rule:nonzero;stroke:none"
             id="path3096" /><path
             d="M 1485.88,-139.414 149.312,1197.14 l 7.309,7.31 1336.559,-1336.555"
             style="fill:#89cf25;fill-opacity:1;fill-rule:nonzero;stroke:none"
             id="path3098" /><path
             d="M 1493.18,-132.105 156.621,1204.45 l 7.313,7.32 1336.556,-1336.567"
             style="fill:#8cd024;fill-opacity:1;fill-rule:nonzero;stroke:none"
             id="path3100" /><path
             d="M 1500.49,-124.797 163.934,1211.77 l 7.308,7.3 L 1507.8,-117.488"
             style="fill:#8fd123;fill-opacity:1;fill-rule:nonzero;stroke:none"
             id="path3102" /><path
             d="M 1507.8,-117.488 171.242,1219.07 l 7.309,7.31 1336.559,-1336.56"
             style="fill:#92d222;fill-opacity:1;fill-rule:nonzero;stroke:none"
             id="path3104" /><path
             d="m 1515.11,-110.18 -1336.559,1336.56 7.308,7.31 1336.561,-1336.557"
             style="fill:#95d221;fill-opacity:1;fill-rule:nonzero;stroke:none"
             id="path3106" /><path
             d="M 1522.42,-102.867 185.859,1233.69 193.168,1241 1529.73,-95.5586"
             style="fill:#98d320;fill-opacity:1;fill-rule:nonzero;stroke:none"
             id="path3108" /><path
             d="M 1529.73,-95.5586 193.168,1241 l 7.309,7.31 L 1537.04,-88.25"
             style="fill:#9cd41f;fill-opacity:1;fill-rule:nonzero;stroke:none"
             id="path3110" /><path
             d="m 1537.04,-88.25 -1336.563,1336.56 7.312,7.31 L 1544.35,-80.9414"
             style="fill:#9fd51e;fill-opacity:1;fill-rule:nonzero;stroke:none"
             id="path3112" /><path
             d="M 1544.35,-80.9414 207.789,1255.62 l 7.309,7.31 L 1551.66,-73.6328"
             style="fill:#a2d61d;fill-opacity:1;fill-rule:nonzero;stroke:none"
             id="path3114" /><path
             d="M 1551.66,-73.6328 215.098,1262.93 l 7.308,7.31 L 1558.97,-66.3242"
             style="fill:#a5d71c;fill-opacity:1;fill-rule:nonzero;stroke:none"
             id="path3116" /><path
             d="M 1558.97,-66.3242 222.406,1270.24 l 7.309,7.31 L 1566.28,-59.0117"
             style="fill:#a8d81b;fill-opacity:1;fill-rule:nonzero;stroke:none"
             id="path3118" /><path
             d="M 1566.28,-59.0117 229.715,1277.55 l 7.308,7.31 L 1573.59,-51.7031"
             style="fill:#abd91a;fill-opacity:1;fill-rule:nonzero;stroke:none"
             id="path3120" /><path
             d="M 1573.59,-51.7031 237.023,1284.86 l 7.313,7.31 L 1580.89,-44.3945"
             style="fill:#aeda19;fill-opacity:1;fill-rule:nonzero;stroke:none"
             id="path3122" /><path
             d="M 1580.89,-44.3945 244.336,1292.17 l 7.309,7.31 L 1588.2,-37.0859"
             style="fill:#b1db18;fill-opacity:1;fill-rule:nonzero;stroke:none"
             id="path3124" /><path
             d="M 1588.2,-37.0859 251.645,1299.48 l 7.308,7.31 L 1595.51,-29.7773"
             style="fill:#b4dc17;fill-opacity:1;fill-rule:nonzero;stroke:none"
             id="path3126" /><path
             d="M 1595.52,-29.7773 258.953,1306.79 l 7.309,7.3 L 1602.82,-22.4648"
             style="fill:#b7dd16;fill-opacity:1;fill-rule:nonzero;stroke:none"
             id="path3128" /><path
             d="M 1602.82,-22.4648 266.262,1314.09 273.57,1321.4 1610.13,-15.1562"
             style="fill:#bbde15;fill-opacity:1;fill-rule:nonzero;stroke:none"
             id="path3130" /><path
             d="M 1610.13,-15.1562 273.57,1321.4 l 7.313,7.31 L 1617.44,-7.84766"
             style="fill:#bedf14;fill-opacity:1;fill-rule:nonzero;stroke:none"
             id="path3132" /><path
             d="M 1617.44,-7.84766 280.883,1328.71 l 7.308,7.31 L 1624.75,-0.539062"
             style="fill:#c1df14;fill-opacity:1;fill-rule:nonzero;stroke:none"
             id="path3134" /><path
             d="M 1624.75,-0.539062 288.191,1336.02 295.5,1343.33 1632.06,6.76953"
             style="fill:#c4e013;fill-opacity:1;fill-rule:nonzero;stroke:none"
             id="path3136" /><path
             d="M 1632.06,6.76953 295.5,1343.33 l 7.309,7.31 L 1639.37,14.0781"
             style="fill:#c7e112;fill-opacity:1;fill-rule:nonzero;stroke:none"
             id="path3138" /><path
             d="M 1639.37,14.0781 302.809,1350.64 l 7.308,7.31 L 1646.68,21.3906"
             style="fill:#cae211;fill-opacity:1;fill-rule:nonzero;stroke:none"
             id="path3140" /><path
             d="M 1646.68,21.3906 310.117,1357.95 l 7.309,7.31 L 1653.99,28.6992"
             style="fill:#cde310;fill-opacity:1;fill-rule:nonzero;stroke:none"
             id="path3142" /><path
             d="M 1653.99,28.6992 317.426,1365.26 l 7.312,7.31 L 1661.3,36.0078"
             style="fill:#d0e40f;fill-opacity:1;fill-rule:nonzero;stroke:none"
             id="path3144" /><path
             d="M 1661.3,36.0078 324.738,1372.57 l 7.309,7.31 L 1668.61,43.3164"
             style="fill:#d3e50e;fill-opacity:1;fill-rule:nonzero;stroke:none"
             id="path3146" /><path
             d="M 1668.61,43.3164 332.047,1379.88 l 7.308,7.31 L 1675.92,50.625"
             style="fill:#d7e60d;fill-opacity:1;fill-rule:nonzero;stroke:none"
             id="path3148" /><path
             d="M 1675.92,50.625 339.355,1387.19 346.664,1394.5 1683.23,57.9375"
             style="fill:#dae70c;fill-opacity:1;fill-rule:nonzero;stroke:none"
             id="path3150" /><path
             d="M 1683.23,57.9375 346.664,1394.5 l 7.309,7.3 L 1690.54,65.2461"
             style="fill:#dde80b;fill-opacity:1;fill-rule:nonzero;stroke:none"
             id="path3152" /><path
             d="M 1690.54,65.2461 353.973,1401.8 l 7.312,7.31 L 1697.84,72.5547"
             style="fill:#e0e90a;fill-opacity:1;fill-rule:nonzero;stroke:none"
             id="path3154" /><path
             d="M 1697.84,72.5547 361.285,1409.11 l 7.309,7.32 L 1705.15,79.8633"
             style="fill:#e3ea09;fill-opacity:1;fill-rule:nonzero;stroke:none"
             id="path3156" /><path
             d="M 1705.15,79.8633 368.594,1416.43 l 7.308,7.3 L 1712.46,87.1719"
             style="fill:#e6eb08;fill-opacity:1;fill-rule:nonzero;stroke:none"
             id="path3158" /><path
             d="M 1712.46,87.1719 375.902,1423.73 l 7.309,7.31 L 1719.77,94.4844"
             style="fill:#e9ec07;fill-opacity:1;fill-rule:nonzero;stroke:none"
             id="path3160" /><path
             d="M 1719.77,94.4844 383.211,1431.04 l 7.309,7.31 1336.56,-1336.557"
             style="fill:#ecec06;fill-opacity:1;fill-rule:nonzero;stroke:none"
             id="path3162" /><path
             d="M 1727.08,101.793 390.52,1438.35 l 7.312,7.31 L 1734.39,109.102"
             style="fill:#efed05;fill-opacity:1;fill-rule:nonzero;stroke:none"
             id="path3164" /><path
             d="M 1734.39,109.102 397.832,1445.66 l 7.309,7.31 L 1741.7,116.41"
             style="fill:#f3ee04;fill-opacity:1;fill-rule:nonzero;stroke:none"
             id="path3166" /><path
             d="m 1741.7,116.41 -1336.559,1336.56 7.308,7.31 L 1749.01,123.719"
             style="fill:#f6ef03;fill-opacity:1;fill-rule:nonzero;stroke:none"
             id="path3168" /><path
             d="M 1749.01,123.719 412.449,1460.28 l 7.309,7.31 L 1756.32,131.027"
             style="fill:#f9f002;fill-opacity:1;fill-rule:nonzero;stroke:none"
             id="path3170" /><path
             d="M 1756.32,131.027 419.758,1467.59 427.066,1474.9 1763.63,138.34"
             style="fill:#fcf101;fill-opacity:1;fill-rule:nonzero;stroke:none"
             id="path3172" /><path
             d="M 1763.63,138.34 427.066,1474.9 l 7.309,7.31 L 1770.94,145.648"
             style="fill:#fff200;fill-opacity:1;fill-rule:nonzero;stroke:none"
             id="path3174" /><path
             d="M 1770.94,145.648 434.375,1482.21 634.859,1682.69 1971.42,346.133"
             style="fill:#fff200;fill-opacity:1;fill-rule:nonzero;stroke:none"
             id="path3176" /><path
             d="M 1770.94,145.648 434.375,1482.21 l 7.309,7.31 L 1778.25,152.957"
             style="fill:#fff200;fill-opacity:1;fill-rule:nonzero;stroke:none"
             id="path3178" /><path
             d="M 1778.25,152.957 441.684,1489.52 l 7.312,7.31 L 1785.55,160.266"
             style="fill:#f9f002;fill-opacity:1;fill-rule:nonzero;stroke:none"
             id="path3180" /><path
             d="M 1785.55,160.266 448.996,1496.83 l 7.309,7.31 L 1792.86,167.574"
             style="fill:#f3ef04;fill-opacity:1;fill-rule:nonzero;stroke:none"
             id="path3182" /><path
             d="M 1792.86,167.574 456.305,1504.14 l 7.308,7.31 L 1800.18,174.883"
             style="fill:#eeed05;fill-opacity:1;fill-rule:nonzero;stroke:none"
             id="path3184" /><path
             d="M 1800.18,174.883 463.613,1511.45 l 7.309,7.3 L 1807.48,182.195"
             style="fill:#e8eb07;fill-opacity:1;fill-rule:nonzero;stroke:none"
             id="path3186" /><path
             d="M 1807.48,182.195 470.922,1518.75 l 7.308,7.31 1336.56,-1336.556"
             style="fill:#e2e909;fill-opacity:1;fill-rule:nonzero;stroke:none"
             id="path3188" /><path
             d="M 1814.79,189.504 478.23,1526.06 l 7.313,7.32 L 1822.1,196.812"
             style="fill:#dce80b;fill-opacity:1;fill-rule:nonzero;stroke:none"
             id="path3190" /><path
             d="M 1822.1,196.812 485.543,1533.38 l 7.309,7.3 L 1829.41,204.121"
             style="fill:#d6e60d;fill-opacity:1;fill-rule:nonzero;stroke:none"
             id="path3192" /><path
             d="M 1829.41,204.121 492.852,1540.68 l 7.308,7.31 1336.56,-1336.56"
             style="fill:#d1e40f;fill-opacity:1;fill-rule:nonzero;stroke:none"
             id="path3194" /><path
             d="M 1836.72,211.43 500.16,1547.99 507.469,1555.3 1844.03,218.742"
             style="fill:#cbe210;fill-opacity:1;fill-rule:nonzero;stroke:none"
             id="path3196" /><path
             d="M 1844.03,218.742 507.469,1555.3 l 7.308,7.31 L 1851.34,226.051"
             style="fill:#c5e112;fill-opacity:1;fill-rule:nonzero;stroke:none"
             id="path3198" /><path
             d="M 1851.34,226.051 514.777,1562.61 l 7.309,7.31 L 1858.65,233.359"
             style="fill:#bfdf14;fill-opacity:1;fill-rule:nonzero;stroke:none"
             id="path3200" /><path
             d="M 1858.65,233.359 522.09,1569.92 l 7.308,7.31 L 1865.96,240.668"
             style="fill:#b9dd16;fill-opacity:1;fill-rule:nonzero;stroke:none"
             id="path3202" /><path
             d="M 1865.96,240.668 529.398,1577.23 l 7.309,7.31 L 1873.27,247.977"
             style="fill:#b4dc18;fill-opacity:1;fill-rule:nonzero;stroke:none"
             id="path3204" /><path
             d="M 1873.27,247.977 536.707,1584.54 l 7.309,7.31 L 1880.58,255.289"
             style="fill:#aeda19;fill-opacity:1;fill-rule:nonzero;stroke:none"
             id="path3206" /><path
             d="M 1880.58,255.289 544.016,1591.85 l 7.308,7.31 L 1887.89,262.598"
             style="fill:#a8d81b;fill-opacity:1;fill-rule:nonzero;stroke:none"
             id="path3208" /><path
             d="M 1887.89,262.598 551.324,1599.16 l 7.309,7.3 L 1895.2,269.906"
             style="fill:#a2d61d;fill-opacity:1;fill-rule:nonzero;stroke:none"
             id="path3210" /><path
             d="M 1895.2,269.906 558.633,1606.46 l 7.312,7.32 L 1902.5,277.215"
             style="fill:#9cd51f;fill-opacity:1;fill-rule:nonzero;stroke:none"
             id="path3212" /><path
             d="M 1902.5,277.215 565.945,1613.78 l 7.309,7.31 L 1909.81,284.523"
             style="fill:#97d321;fill-opacity:1;fill-rule:nonzero;stroke:none"
             id="path3214" /><path
             d="M 1909.81,284.523 573.254,1621.09 l 7.308,7.3 L 1917.12,291.832"
             style="fill:#91d123;fill-opacity:1;fill-rule:nonzero;stroke:none"
             id="path3216" /><path
             d="M 1917.12,291.832 580.562,1628.39 587.871,1635.7 1924.43,299.145"
             style="fill:#8bcf24;fill-opacity:1;fill-rule:nonzero;stroke:none"
             id="path3218" /><path
             d="M 1924.43,299.145 587.871,1635.7 l 7.309,7.31 1336.56,-1336.557"
             style="fill:#85ce26;fill-opacity:1;fill-rule:nonzero;stroke:none"
             id="path3220" /><path
             d="M 1931.74,306.453 595.18,1643.01 l 7.312,7.31 L 1939.05,313.762"
             style="fill:#80cc28;fill-opacity:1;fill-rule:nonzero;stroke:none"
             id="path3222" /><path
             d="M 1939.05,313.762 602.492,1650.32 l 7.309,7.31 L 1946.36,321.07"
             style="fill:#7aca2a;fill-opacity:1;fill-rule:nonzero;stroke:none"
             id="path3224" /><path
             d="m 1946.36,321.07 -1336.559,1336.56 7.308,7.31 L 1953.67,328.379"
             style="fill:#74c92c;fill-opacity:1;fill-rule:nonzero;stroke:none"
             id="path3226" /><path
             d="M 1953.67,328.379 617.109,1664.94 l 7.309,7.31 L 1960.98,335.691"
             style="fill:#6ec72d;fill-opacity:1;fill-rule:nonzero;stroke:none"
             id="path3228" /><path
             d="M 1960.98,335.691 624.418,1672.25 l 7.309,7.31 L 1968.29,343"
             style="fill:#68c52f;fill-opacity:1;fill-rule:nonzero;stroke:none"
             id="path3230" /><path
             d="m 1968.29,343 -1336.563,1336.56 7.308,7.31 L 1975.6,350.309"
             style="fill:#63c331;fill-opacity:1;fill-rule:nonzero;stroke:none"
             id="path3232" /><path
             d="M 1975.6,350.309 639.039,1686.87 l 7.309,7.31 L 1982.91,357.617"
             style="fill:#5dc233;fill-opacity:1;fill-rule:nonzero;stroke:none"
             id="path3234" /><path
             d="M 1982.91,357.617 646.348,1694.18 l 7.308,7.31 L 1990.21,364.926"
             style="fill:#57c035;fill-opacity:1;fill-rule:nonzero;stroke:none"
             id="path3236" /><path
             d="M 1990.21,364.926 653.656,1701.49 660.965,1708.8 1997.53,372.234"
             style="fill:#51be37;fill-opacity:1;fill-rule:nonzero;stroke:none"
             id="path3238" /><path
             d="M 1997.53,372.238 660.965,1708.8 l 7.308,7.31 L 2004.84,379.547"
             style="fill:#4bbc38;fill-opacity:1;fill-rule:nonzero;stroke:none"
             id="path3240" /><path
             d="M 2004.84,379.547 668.273,1716.11 l 7.309,7.3 L 2012.14,386.855"
             style="fill:#46bb3a;fill-opacity:1;fill-rule:nonzero;stroke:none"
             id="path3242" /><path
             d="M 2012.14,386.855 675.582,1723.41 l 7.313,7.32 L 2019.45,394.164"
             style="fill:#40b93c;fill-opacity:1;fill-rule:nonzero;stroke:none"
             id="path3244" /><path
             d="M 2019.45,394.164 682.895,1730.73 l 7.308,7.31 L 2026.76,401.473"
             style="fill:#3ab73e;fill-opacity:1;fill-rule:nonzero;stroke:none"
             id="path3246" /><path
             d="M 2026.76,401.473 690.203,1738.04 l 7.309,7.3 L 2034.07,408.781"
             style="fill:#34b640;fill-opacity:1;fill-rule:nonzero;stroke:none"
             id="path3248" /><path
             d="M 2034.07,408.781 697.512,1745.34 l 7.308,7.31 1336.56,-1336.556"
             style="fill:#2eb441;fill-opacity:1;fill-rule:nonzero;stroke:none"
             id="path3250" /><path
             d="M 2041.38,416.094 704.82,1752.65 l 7.309,7.31 L 2048.69,423.402"
             style="fill:#28b243;fill-opacity:1;fill-rule:nonzero;stroke:none"
             id="path3252" /><path
             d="M 2048.69,423.402 712.129,1759.96 l 7.312,7.31 L 2056,430.711"
             style="fill:#23b045;fill-opacity:1;fill-rule:nonzero;stroke:none"
             id="path3254" /><path
             d="M 2056,430.711 719.441,1767.27 l 7.309,7.31 1336.56,-1336.56"
             style="fill:#1daf47;fill-opacity:1;fill-rule:nonzero;stroke:none"
             id="path3256" /><path
             d="m 2063.31,438.02 -1336.56,1336.56 7.309,7.31 L 2070.62,445.328"
             style="fill:#17ad49;fill-opacity:1;fill-rule:nonzero;stroke:none"
             id="path3258" /><path
             d="M 2070.62,445.328 734.059,1781.89 741.367,1789.2 2077.93,452.641"
             style="fill:#11ab4b;fill-opacity:1;fill-rule:nonzero;stroke:none"
             id="path3260" /><path
             d="M 2077.93,452.641 741.367,1789.2 l 7.309,7.31 L 2085.24,459.949"
             style="fill:#0ba94c;fill-opacity:1;fill-rule:nonzero;stroke:none"
             id="path3262" /><path
             d="M 2085.24,459.949 748.676,1796.51 l 7.308,7.31 L 2092.55,467.258"
             style="fill:#06a84e;fill-opacity:1;fill-rule:nonzero;stroke:none"
             id="path3264" /><path
             d="M 2092.55,467.258 755.984,1803.82 l 7.313,7.31 L 2099.86,474.566"
             style="fill:#00a650;fill-opacity:1;fill-rule:nonzero;stroke:none"
             id="path3266" /><path
             d="M 2099.86,474.566 763.297,1811.13 963.781,2011.61 2300.34,675.051"
             style="fill:#00a650;fill-opacity:1;fill-rule:nonzero;stroke:none"
             id="path3268" /></g></g></g></g></svg>